<svg width="18" height="22" viewBox="0 0 18 22" fill="none" xmlns="http://www.w3.org/2000/svg">
<path d="M14.9062 11.1094C14.9062 11.2031 14.7656 13.9688 17.8125 15.4219C17.25 17.1562 15.2812 21 12.9844 21C11.6719 21 10.9219 20.1562 9.42188 20.1562C7.875 20.1562 7.03125 21 5.85938 21C3.60938 21.0938 1.45312 16.875 0.84375 15.1406C0.375 13.8281 0.1875 12.5625 0.1875 11.3438C0.1875 7.17188 2.95312 5.15625 5.57812 5.10938C6.84375 5.10938 8.4375 6 9.14062 6C9.79688 6 11.625 4.92188 13.3125 5.0625C15.0469 5.20312 16.3594 5.85938 17.25 7.125C15.7031 8.10938 14.9062 9.375 14.9062 11.1094ZM12.2812 3.42188C11.3438 4.5 10.2188 5.10938 9 5.01562C8.90625 3.75 9.375 2.57812 10.2188 1.64062C10.9688 0.796875 12.2812 0.09375 13.4062 0C13.4062 0.515625 13.5469 1.92188 12.2812 3.42188Z" fill="#2B2B2B"/>
</svg>
