<svg width="144" height="144" viewBox="0 0 144 144" fill="none" xmlns="http://www.w3.org/2000/svg" className="play-icon">
<g filter="url(#filter0_d_1_2164)">
<path d="M59.25 35.75C60.5625 34.8125 62.4375 34.8125 63.75 35.75L90.75 52.25C92.0625 53 93 54.5 93 56C93 57.6875 92.0625 59.1875 90.75 59.9375L63.75 76.4375C62.4375 77.1875 60.5625 77.375 59.25 76.4375C57.75 75.6875 57 74.1875 57 72.5V39.5C57 38 57.75 36.5 59.25 35.75ZM120 56C120 82.625 98.4375 104 72 104C45.375 104 24 82.625 24 56C24 29.5625 45.375 8 72 8C98.4375 8 120 29.5625 120 56ZM72 17C50.4375 17 33 34.625 33 56C33 77.5625 50.4375 95 72 95C93.375 95 111 77.5625 111 56C111 34.625 93.375 17 72 17Z" fill="white"/>
</g>
<defs>
<filter id="filter0_d_1_2164" x="0" y="0" width="144" height="144" filterUnits="userSpaceOnUse" colorInterpolationFilters="sRGB">
<feFlood floodOpacity="0" result="BackgroundImageFix"/>
<feColorMatrix in="SourceAlpha" type="matrix" values="0 0 0 0 0 0 0 0 0 0 0 0 0 0 0 0 0 0 127 0" result="hardAlpha"/>
<feMorphology radius="8" operator="erode" in="SourceAlpha" result="effect1_dropShadow_1_2164"/>
<feOffset dy="16"/>
<feGaussianBlur stdDeviation="16"/>
<feComposite in2="hardAlpha" operator="out"/>
<feColorMatrix type="matrix" values="0 0 0 0 0.0470588 0 0 0 0 0.0470588 0 0 0 0 0.0509804 0 0 0 0.4 0"/>
<feBlend mode="normal" in2="BackgroundImageFix" result="effect1_dropShadow_1_2164"/>
<feBlend mode="normal" in="SourceGraphic" in2="effect1_dropShadow_1_2164" result="shape"/>
</filter>
</defs>
</svg>
