<svg width="1440" height="36" viewBox="0 0 1440 36" fill="none" xmlns="http://www.w3.org/2000/svg">
<g clip-path="url(#clip0_1_843)">
<path d="M1.35922 9.72461H0.00810671V36.0001H1.35922V9.72461Z" fill="#2B2B2B"/>
<path d="M18.967 9.72461H16.2648V36.0001H18.967V9.72461Z" fill="#2B2B2B"/>
<path d="M37.9961 9.72461H33.9428V36.0001H37.9961V9.72461Z" fill="#2B2B2B"/>
<path d="M59.5573 9.72461H54.1528V36.0001H59.5573V9.72461Z" fill="#2B2B2B"/>
<path d="M81.1319 9.72461H74.3763V36.0001H81.1319V9.72461Z" fill="#2B2B2B"/>
<path d="M100.094 9.72461H91.9868V36.0001H100.094V9.72461Z" fill="#2B2B2B"/>
<path d="M119.001 9.72461H109.543V36.0001H119.001V9.72461Z" fill="#2B2B2B"/>
<path d="M137.911 9.72461H127.102V36.0001H137.911V9.72461Z" fill="#2B2B2B"/>
<path d="M159.537 9.72461H144.675V36.0001H159.537V9.72461Z" fill="#2B2B2B"/>
<path d="M181.215 9.72461H165.001V36.0001H181.215V9.72461Z" fill="#2B2B2B"/>
<path d="M200.095 9.72461H185.233V36.0001H200.095V9.72461Z" fill="#2B2B2B"/>
<path d="M218.992 9.72461H202.778V36.0001H218.992V9.72461Z" fill="#2B2B2B"/>
<path d="M217.646 9.72705H218.997V-1.43051e-05H217.646V9.72705Z" fill="#2B2B2B"/>
<path d="M200.049 9.72705H202.751V-1.43051e-05H200.049V9.72705Z" fill="#2B2B2B"/>
<path d="M181.215 9.72705H185.268V-1.43051e-05H181.215V9.72705Z" fill="#2B2B2B"/>
<path d="M159.518 9.72705H164.923V-1.43051e-05H159.518V9.72705Z" fill="#2B2B2B"/>
<path d="M137.911 9.72705H144.667V-1.43051e-05H137.911V9.72705Z" fill="#2B2B2B"/>
<path d="M119.052 9.72705H127.159L127.159 -1.43051e-05H119.052L119.052 9.72705Z" fill="#2B2B2B"/>
<path d="M100.099 9.72705H109.557L109.557 -1.43051e-05H100.099L100.099 9.72705Z" fill="#2B2B2B"/>
<path d="M81.0995 9.72705H91.9085L91.9085 -1.43051e-05H81.0995L81.0995 9.72705Z" fill="#2B2B2B"/>
<path d="M59.5194 9.72705H74.3817L74.3817 -1.43051e-05H59.5194L59.5194 9.72705Z" fill="#2B2B2B"/>
<path d="M37.9475 9.72705H54.1609L54.1609 -1.43051e-05H37.9475L37.9475 9.72705Z" fill="#2B2B2B"/>
<path d="M19.1102 9.72705H33.9725L33.9725 -1.43051e-05H19.1102L19.1102 9.72705Z" fill="#2B2B2B"/>
<path d="M0 9.72705H16.2134L16.2134 -1.43051e-05H0L0 9.72705Z" fill="#2B2B2B"/>
</g>
<g clip-path="url(#clip1_1_843)">
<path d="M851.967 9.72461H849.265V36.0001H851.967V9.72461Z" fill="#2B2B2B"/>
<path d="M870.996 9.72461H866.943V36.0001H870.996V9.72461Z" fill="#2B2B2B"/>
<path d="M892.557 9.72461H887.153V36.0001H892.557V9.72461Z" fill="#2B2B2B"/>
<path d="M914.132 9.72461H907.376V36.0001H914.132V9.72461Z" fill="#2B2B2B"/>
<path d="M933.094 9.72461H924.987V36.0001H933.094V9.72461Z" fill="#2B2B2B"/>
<path d="M952.001 9.72461H942.543V36.0001H952.001V9.72461Z" fill="#2B2B2B"/>
<path d="M970.911 9.72461H960.102V36.0001H970.911V9.72461Z" fill="#2B2B2B"/>
<path d="M992.537 9.72461H977.675V36.0001H992.537V9.72461Z" fill="#2B2B2B"/>
<path d="M1014.21 9.72461H998.001V36.0001H1014.21V9.72461Z" fill="#2B2B2B"/>
<path d="M1033.1 9.72461H1018.23V36.0001H1033.1V9.72461Z" fill="#2B2B2B"/>
<path d="M1051.99 9.72461H1035.78V36.0001H1051.99V9.72461Z" fill="#2B2B2B"/>
<path d="M1050.65 9.72705H1052V-1.43051e-05H1050.65V9.72705Z" fill="#2B2B2B"/>
<path d="M1033.05 9.72705H1035.75V-1.43051e-05H1033.05V9.72705Z" fill="#2B2B2B"/>
<path d="M1014.21 9.72705H1018.27V-1.43051e-05H1014.21V9.72705Z" fill="#2B2B2B"/>
<path d="M992.518 9.72705H997.923V-1.43051e-05H992.518V9.72705Z" fill="#2B2B2B"/>
<path d="M970.911 9.72705H977.667V-1.43051e-05H970.911V9.72705Z" fill="#2B2B2B"/>
<path d="M952.052 9.72705H960.159V-1.43051e-05H952.052V9.72705Z" fill="#2B2B2B"/>
<path d="M933.099 9.72705H942.557V-1.43051e-05H933.099V9.72705Z" fill="#2B2B2B"/>
<path d="M914.1 9.72705H924.908V-1.43051e-05H914.1V9.72705Z" fill="#2B2B2B"/>
<path d="M892.519 9.72705H907.382V-1.43051e-05H892.519V9.72705Z" fill="#2B2B2B"/>
<path d="M870.947 9.72705H887.161V-1.43051e-05H870.947V9.72705Z" fill="#2B2B2B"/>
<path d="M852.11 9.72705H866.973V-1.43051e-05H852.11V9.72705Z" fill="#2B2B2B"/>
<path d="M833 9.72705H849.213V-1.43051e-05H833V9.72705Z" fill="#2B2B2B"/>
</g>
<g clip-path="url(#clip2_1_843)">
<path d="M423.967 9.72461H421.265V36.0001H423.967V9.72461Z" fill="#2B2B2B"/>
<path d="M442.996 9.72461H438.943V36.0001H442.996V9.72461Z" fill="#2B2B2B"/>
<path d="M464.557 9.72461H459.153V36.0001H464.557V9.72461Z" fill="#2B2B2B"/>
<path d="M486.132 9.72461H479.376V36.0001H486.132V9.72461Z" fill="#2B2B2B"/>
<path d="M505.094 9.72461H496.987V36.0001H505.094V9.72461Z" fill="#2B2B2B"/>
<path d="M524.001 9.72461H514.543V36.0001H524.001V9.72461Z" fill="#2B2B2B"/>
<path d="M542.911 9.72461H532.102V36.0001H542.911V9.72461Z" fill="#2B2B2B"/>
<path d="M564.537 9.72461H549.675V36.0001H564.537V9.72461Z" fill="#2B2B2B"/>
<path d="M586.215 9.72461H570.001V36.0001H586.215V9.72461Z" fill="#2B2B2B"/>
<path d="M605.095 9.72461H590.233V36.0001H605.095V9.72461Z" fill="#2B2B2B"/>
<path d="M623.992 9.72461H607.778V36.0001H623.992V9.72461Z" fill="#2B2B2B"/>
<path d="M622.646 9.72705H623.997V-1.43051e-05H622.646V9.72705Z" fill="#2B2B2B"/>
<path d="M605.049 9.72705H607.751V-1.43051e-05H605.049V9.72705Z" fill="#2B2B2B"/>
<path d="M586.215 9.72705H590.268V-1.43051e-05H586.215V9.72705Z" fill="#2B2B2B"/>
<path d="M564.518 9.72705H569.923V-1.43051e-05H564.518V9.72705Z" fill="#2B2B2B"/>
<path d="M542.911 9.72705H549.667V-1.43051e-05H542.911V9.72705Z" fill="#2B2B2B"/>
<path d="M524.052 9.72705H532.159V-1.43051e-05H524.052V9.72705Z" fill="#2B2B2B"/>
<path d="M505.099 9.72705H514.557V-1.43051e-05H505.099V9.72705Z" fill="#2B2B2B"/>
<path d="M486.1 9.72705H496.908V-1.43051e-05H486.1V9.72705Z" fill="#2B2B2B"/>
<path d="M464.519 9.72705H479.382V-1.43051e-05H464.519V9.72705Z" fill="#2B2B2B"/>
<path d="M442.948 9.72705H459.161V-1.43051e-05H442.948V9.72705Z" fill="#2B2B2B"/>
<path d="M424.11 9.72705H438.973V-1.43051e-05H424.11V9.72705Z" fill="#2B2B2B"/>
<path d="M405 9.72705H421.213V-1.43051e-05H405V9.72705Z" fill="#2B2B2B"/>
</g>
<g clip-path="url(#clip3_1_843)">
<path d="M1256.97 9.72461H1254.26V36.0001H1256.97V9.72461Z" fill="#2B2B2B"/>
<path d="M1276 9.72461H1271.94V36.0001H1276V9.72461Z" fill="#2B2B2B"/>
<path d="M1297.56 9.72461H1292.15V36.0001H1297.56V9.72461Z" fill="#2B2B2B"/>
<path d="M1319.13 9.72461H1312.38V36.0001H1319.13V9.72461Z" fill="#2B2B2B"/>
<path d="M1338.09 9.72461H1329.99V36.0001H1338.09V9.72461Z" fill="#2B2B2B"/>
<path d="M1357 9.72461H1347.54V36.0001H1357V9.72461Z" fill="#2B2B2B"/>
<path d="M1375.91 9.72461H1365.1V36.0001H1375.91V9.72461Z" fill="#2B2B2B"/>
<path d="M1397.54 9.72461H1382.68V36.0001H1397.54V9.72461Z" fill="#2B2B2B"/>
<path d="M1419.21 9.72461H1403V36.0001H1419.21V9.72461Z" fill="#2B2B2B"/>
<path d="M1438.1 9.72461H1423.23V36.0001H1438.1V9.72461Z" fill="#2B2B2B"/>
<path d="M1438.05 9.72705H1440.75V-1.43051e-05H1438.05V9.72705Z" fill="#2B2B2B"/>
<path d="M1419.21 9.72705H1423.27V-1.43051e-05H1419.21V9.72705Z" fill="#2B2B2B"/>
<path d="M1397.52 9.72705H1402.92V-1.43051e-05H1397.52V9.72705Z" fill="#2B2B2B"/>
<path d="M1375.91 9.72705H1382.67V-1.43051e-05H1375.91V9.72705Z" fill="#2B2B2B"/>
<path d="M1357.05 9.72705H1365.16V-1.43051e-05H1357.05V9.72705Z" fill="#2B2B2B"/>
<path d="M1338.1 9.72705H1347.56V-1.43051e-05H1338.1V9.72705Z" fill="#2B2B2B"/>
<path d="M1319.1 9.72705H1329.91V-1.43051e-05H1319.1V9.72705Z" fill="#2B2B2B"/>
<path d="M1297.52 9.72705H1312.38V-1.43051e-05H1297.52V9.72705Z" fill="#2B2B2B"/>
<path d="M1275.95 9.72705H1292.16V-1.43051e-05H1275.95V9.72705Z" fill="#2B2B2B"/>
<path d="M1257.11 9.72705H1271.97V-1.43051e-05H1257.11V9.72705Z" fill="#2B2B2B"/>
<path d="M1238 9.72705H1254.21V-1.43051e-05H1238V9.72705Z" fill="#2B2B2B"/>
</g>
<g clip-path="url(#clip4_1_843)">
<path d="M402.033 9.72461H404.735V36.0001H402.033V9.72461Z" fill="#2B2B2B"/>
<path d="M383.004 9.72461H387.057V36.0001H383.004V9.72461Z" fill="#2B2B2B"/>
<path d="M361.443 9.72461H366.847V36.0001H361.443V9.72461Z" fill="#2B2B2B"/>
<path d="M339.868 9.72461H346.624V36.0001H339.868V9.72461Z" fill="#2B2B2B"/>
<path d="M320.906 9.72461H329.013V36.0001H320.906V9.72461Z" fill="#2B2B2B"/>
<path d="M301.999 9.72461H311.457V36.0001H301.999V9.72461Z" fill="#2B2B2B"/>
<path d="M283.089 9.72461H293.898V36.0001H283.089V9.72461Z" fill="#2B2B2B"/>
<path d="M261.463 9.72461H276.325V36.0001H261.463V9.72461Z" fill="#2B2B2B"/>
<path d="M239.785 9.72461H255.999V36.0001H239.785V9.72461Z" fill="#2B2B2B"/>
<path d="M220.905 9.72461H235.767V36.0001H220.905V9.72461Z" fill="#2B2B2B"/>
<path d="M202.008 9.72461H218.222V36.0001H202.008V9.72461Z" fill="#2B2B2B"/>
<path d="M239.785 9.72705H235.732V-1.43051e-05H239.785V9.72705Z" fill="#2B2B2B"/>
<path d="M261.482 9.72705H256.077V-1.43051e-05H261.482V9.72705Z" fill="#2B2B2B"/>
<path d="M283.089 9.72705H276.333V-1.43051e-05H283.089V9.72705Z" fill="#2B2B2B"/>
<path d="M301.948 9.72705H293.841V-1.43051e-05H301.948V9.72705Z" fill="#2B2B2B"/>
<path d="M320.901 9.72705H311.443V-1.43051e-05H320.901V9.72705Z" fill="#2B2B2B"/>
<path d="M339.9 9.72705H329.092V-1.43051e-05H339.9V9.72705Z" fill="#2B2B2B"/>
<path d="M361.481 9.72705H346.618V-1.43051e-05H361.481V9.72705Z" fill="#2B2B2B"/>
<path d="M383.052 9.72705H366.839V-1.43051e-05H383.052V9.72705Z" fill="#2B2B2B"/>
<path d="M401.89 9.72705H387.027V-1.43051e-05H401.89V9.72705Z" fill="#2B2B2B"/>
<path d="M421 9.72705H404.787V-1.43051e-05H421V9.72705Z" fill="#2B2B2B"/>
</g>
<g clip-path="url(#clip5_1_843)">
<path d="M1235.03 9.72461H1237.74V36.0001H1235.03V9.72461Z" fill="#2B2B2B"/>
<path d="M1216 9.72461H1220.06V36.0001H1216V9.72461Z" fill="#2B2B2B"/>
<path d="M1194.44 9.72461H1199.85V36.0001H1194.44V9.72461Z" fill="#2B2B2B"/>
<path d="M1172.87 9.72461H1179.62V36.0001H1172.87V9.72461Z" fill="#2B2B2B"/>
<path d="M1153.91 9.72461H1162.01V36.0001H1153.91V9.72461Z" fill="#2B2B2B"/>
<path d="M1135 9.72461H1144.46V36.0001H1135V9.72461Z" fill="#2B2B2B"/>
<path d="M1116.09 9.72461H1126.9V36.0001H1116.09V9.72461Z" fill="#2B2B2B"/>
<path d="M1094.46 9.72461H1109.32V36.0001H1094.46V9.72461Z" fill="#2B2B2B"/>
<path d="M1072.79 9.72461H1089V36.0001H1072.79V9.72461Z" fill="#2B2B2B"/>
<path d="M1053.9 9.72461H1068.77V36.0001H1053.9V9.72461Z" fill="#2B2B2B"/>
<path d="M1035.01 9.72461H1051.22V36.0001H1035.01V9.72461Z" fill="#2B2B2B"/>
<path d="M1072.79 9.72705H1068.73V-1.43051e-05H1072.79V9.72705Z" fill="#2B2B2B"/>
<path d="M1094.48 9.72705H1089.08V-1.43051e-05H1094.48V9.72705Z" fill="#2B2B2B"/>
<path d="M1116.09 9.72705H1109.33V-1.43051e-05H1116.09V9.72705Z" fill="#2B2B2B"/>
<path d="M1134.95 9.72705H1126.84V-1.43051e-05H1134.95V9.72705Z" fill="#2B2B2B"/>
<path d="M1153.9 9.72705H1144.44V-1.43051e-05H1153.9V9.72705Z" fill="#2B2B2B"/>
<path d="M1172.9 9.72705H1162.09V-1.43051e-05H1172.9V9.72705Z" fill="#2B2B2B"/>
<path d="M1194.48 9.72705H1179.62V-1.43051e-05H1194.48V9.72705Z" fill="#2B2B2B"/>
<path d="M1216.05 9.72705H1199.84V-1.43051e-05H1216.05V9.72705Z" fill="#2B2B2B"/>
<path d="M1234.89 9.72705H1220.03V-1.43051e-05H1234.89V9.72705Z" fill="#2B2B2B"/>
<path d="M1254 9.72705H1237.79V-1.43051e-05H1254V9.72705Z" fill="#2B2B2B"/>
</g>
<g clip-path="url(#clip6_1_843)">
<path d="M830.033 9.72461H832.735V36.0001H830.033V9.72461Z" fill="#2B2B2B"/>
<path d="M811.004 9.72461H815.057V36.0001H811.004V9.72461Z" fill="#2B2B2B"/>
<path d="M789.443 9.72461H794.847V36.0001H789.443V9.72461Z" fill="#2B2B2B"/>
<path d="M767.868 9.72461H774.624V36.0001H767.868V9.72461Z" fill="#2B2B2B"/>
<path d="M748.906 9.72461H757.013V36.0001H748.906V9.72461Z" fill="#2B2B2B"/>
<path d="M729.999 9.72461H739.457V36.0001H729.999V9.72461Z" fill="#2B2B2B"/>
<path d="M711.089 9.72461H721.898V36.0001H711.089V9.72461Z" fill="#2B2B2B"/>
<path d="M689.463 9.72461H704.325V36.0001H689.463V9.72461Z" fill="#2B2B2B"/>
<path d="M667.785 9.72461H683.999V36.0001H667.785V9.72461Z" fill="#2B2B2B"/>
<path d="M648.905 9.72461H663.767V36.0001H648.905V9.72461Z" fill="#2B2B2B"/>
<path d="M630.008 9.72461H646.222V36.0001H630.008V9.72461Z" fill="#2B2B2B"/>
<path d="M667.785 9.72705H663.732V-1.43051e-05H667.785V9.72705Z" fill="#2B2B2B"/>
<path d="M689.482 9.72705H684.077V-1.43051e-05H689.482V9.72705Z" fill="#2B2B2B"/>
<path d="M711.089 9.72705H704.333V-1.43051e-05H711.089V9.72705Z" fill="#2B2B2B"/>
<path d="M729.948 9.72705H721.841V-1.43051e-05H729.948V9.72705Z" fill="#2B2B2B"/>
<path d="M748.901 9.72705H739.443V-1.43051e-05H748.901V9.72705Z" fill="#2B2B2B"/>
<path d="M767.9 9.72705H757.092V-1.43051e-05H767.9V9.72705Z" fill="#2B2B2B"/>
<path d="M789.481 9.72705H774.618V-1.43051e-05H789.481V9.72705Z" fill="#2B2B2B"/>
<path d="M811.053 9.72705H794.839V-1.43051e-05H811.053V9.72705Z" fill="#2B2B2B"/>
<path d="M829.89 9.72705H815.027V-1.43051e-05H829.89V9.72705Z" fill="#2B2B2B"/>
<path d="M849 9.72705H832.787V-1.43051e-05H849V9.72705Z" fill="#2B2B2B"/>
</g>
<defs>
<clipPath id="clip0_1_843">
<rect width="219" height="36" fill="white"/>
</clipPath>
<clipPath id="clip1_1_843">
<rect width="219" height="36" fill="white" transform="translate(833)"/>
</clipPath>
<clipPath id="clip2_1_843">
<rect width="219" height="36" fill="white" transform="translate(405)"/>
</clipPath>
<clipPath id="clip3_1_843">
<rect width="219" height="36" fill="white" transform="translate(1238)"/>
</clipPath>
<clipPath id="clip4_1_843">
<rect width="219" height="36" fill="white" transform="matrix(-1 0 0 1 421 0)"/>
</clipPath>
<clipPath id="clip5_1_843">
<rect width="219" height="36" fill="white" transform="matrix(-1 0 0 1 1254 0)"/>
</clipPath>
<clipPath id="clip6_1_843">
<rect width="219" height="36" fill="white" transform="matrix(-1 0 0 1 849 0)"/>
</clipPath>
</defs>
</svg>
