<svg width="1303" height="3181" viewBox="0 0 1303 3181" fill="none" xmlns="http://www.w3.org/2000/svg">
<g opacity="0.05">
<path d="M512.5 1.14282H1.5V455.143H512.5V1.14282Z" stroke="#9D8D72" stroke-width="2" stroke-miterlimit="10"/>
<path d="M1.5 455.291H512.798" stroke="#9D8D72" stroke-width="2" stroke-miterlimit="10"/>
<path d="M1.5 398.522H512.798" stroke="#9D8D72" stroke-width="2" stroke-miterlimit="10"/>
<path d="M1.5 341.754H512.798" stroke="#9D8D72" stroke-width="2" stroke-miterlimit="10"/>
<path d="M1.5 284.985H512.798" stroke="#9D8D72" stroke-width="2" stroke-miterlimit="10"/>
<path d="M1.5 228.217H512.798" stroke="#9D8D72" stroke-width="2" stroke-miterlimit="10"/>
<path d="M1.5 171.448H512.798" stroke="#9D8D72" stroke-width="2" stroke-miterlimit="10"/>
<path d="M1.5 114.68H512.798" stroke="#9D8D72" stroke-width="2" stroke-miterlimit="10"/>
<path d="M1.5 57.9114H512.798" stroke="#9D8D72" stroke-width="2" stroke-miterlimit="10"/>
<path d="M455.443 1.14282V455.143" stroke="#9D8D72" stroke-width="2" stroke-miterlimit="10"/>
<path d="M399.443 1.14282V455.143" stroke="#9D8D72" stroke-width="2" stroke-miterlimit="10"/>
<path d="M342.443 1.14282V455.143" stroke="#9D8D72" stroke-width="2" stroke-miterlimit="10"/>
<path d="M285.443 1.14282V455.143" stroke="#9D8D72" stroke-width="2" stroke-miterlimit="10"/>
<path d="M228.443 1.14282V455.143" stroke="#9D8D72" stroke-width="2" stroke-miterlimit="10"/>
<path d="M171.443 1.14282V455.143" stroke="#9D8D72" stroke-width="2" stroke-miterlimit="10"/>
<path d="M115.443 1.14282V455.143" stroke="#9D8D72" stroke-width="2" stroke-miterlimit="10"/>
<path d="M58.4432 1.14282V455.143" stroke="#9D8D72" stroke-width="2" stroke-miterlimit="10"/>
<path d="M1023.5 1.14282H512.5V455.143H1023.5V1.14282Z" stroke="#9D8D72" stroke-width="2" stroke-miterlimit="10"/>
<path d="M512.518 455.291H1023.82" stroke="#9D8D72" stroke-width="2" stroke-miterlimit="10"/>
<path d="M512.518 398.522H1023.82" stroke="#9D8D72" stroke-width="2" stroke-miterlimit="10"/>
<path d="M512.518 341.754H1023.82" stroke="#9D8D72" stroke-width="2" stroke-miterlimit="10"/>
<path d="M512.518 284.985H1023.82" stroke="#9D8D72" stroke-width="2" stroke-miterlimit="10"/>
<path d="M512.518 228.217H1023.82" stroke="#9D8D72" stroke-width="2" stroke-miterlimit="10"/>
<path d="M512.518 171.448H1023.82" stroke="#9D8D72" stroke-width="2" stroke-miterlimit="10"/>
<path d="M512.518 114.68H1023.82" stroke="#9D8D72" stroke-width="2" stroke-miterlimit="10"/>
<path d="M512.518 57.9114H1023.82" stroke="#9D8D72" stroke-width="2" stroke-miterlimit="10"/>
<path d="M967.443 1.14282V455.143" stroke="#9D8D72" stroke-width="2" stroke-miterlimit="10"/>
<path d="M910.443 1.14282V455.143" stroke="#9D8D72" stroke-width="2" stroke-miterlimit="10"/>
<path d="M853.443 1.14282V455.143" stroke="#9D8D72" stroke-width="2" stroke-miterlimit="10"/>
<path d="M796.443 1.14282V455.143" stroke="#9D8D72" stroke-width="2" stroke-miterlimit="10"/>
<path d="M739.443 1.14282V455.143" stroke="#9D8D72" stroke-width="2" stroke-miterlimit="10"/>
<path d="M682.443 1.14282V455.143" stroke="#9D8D72" stroke-width="2" stroke-miterlimit="10"/>
<path d="M626.443 1.14282V455.143" stroke="#9D8D72" stroke-width="2" stroke-miterlimit="10"/>
<path d="M569.443 1.14282V455.143" stroke="#9D8D72" stroke-width="2" stroke-miterlimit="10"/>
<path d="M1301.5 1.14282H1023.5V455.143H1301.5V1.14282Z" stroke="#9D8D72" stroke-width="2" stroke-miterlimit="10"/>
<path d="M1023.33 455.291H1301.5" stroke="#9D8D72" stroke-width="2" stroke-miterlimit="10"/>
<path d="M1023.33 398.522H1301.5" stroke="#9D8D72" stroke-width="2" stroke-miterlimit="10"/>
<path d="M1023.33 341.754H1301.5" stroke="#9D8D72" stroke-width="2" stroke-miterlimit="10"/>
<path d="M1023.33 284.985H1301.5" stroke="#9D8D72" stroke-width="2" stroke-miterlimit="10"/>
<path d="M1023.33 228.217H1301.5" stroke="#9D8D72" stroke-width="2" stroke-miterlimit="10"/>
<path d="M1023.33 171.448H1301.5" stroke="#9D8D72" stroke-width="2" stroke-miterlimit="10"/>
<path d="M1023.33 114.68H1301.5" stroke="#9D8D72" stroke-width="2" stroke-miterlimit="10"/>
<path d="M1023.33 57.9114H1301.5" stroke="#9D8D72" stroke-width="2" stroke-miterlimit="10"/>
<path d="M1250.44 1.14282V455.143" stroke="#9D8D72" stroke-width="2" stroke-miterlimit="10"/>
<path d="M1193.44 1.14282V455.143" stroke="#9D8D72" stroke-width="2" stroke-miterlimit="10"/>
<path d="M1136.44 1.14282V455.143" stroke="#9D8D72" stroke-width="2" stroke-miterlimit="10"/>
<path d="M1080.44 1.14282V455.143" stroke="#9D8D72" stroke-width="2" stroke-miterlimit="10"/>
<path d="M512.5 909.143H1.5V1363.14H512.5V909.143Z" stroke="#9D8D72" stroke-width="2" stroke-miterlimit="10"/>
<path d="M1.5 1363.29H512.798" stroke="#9D8D72" stroke-width="2" stroke-miterlimit="10"/>
<path d="M1.5 1306.52H512.798" stroke="#9D8D72" stroke-width="2" stroke-miterlimit="10"/>
<path d="M1.5 1249.75H512.798" stroke="#9D8D72" stroke-width="2" stroke-miterlimit="10"/>
<path d="M1.5 1192.99H512.798" stroke="#9D8D72" stroke-width="2" stroke-miterlimit="10"/>
<path d="M1.5 1136.22H512.798" stroke="#9D8D72" stroke-width="2" stroke-miterlimit="10"/>
<path d="M1.5 1079.45H512.798" stroke="#9D8D72" stroke-width="2" stroke-miterlimit="10"/>
<path d="M1.5 1022.68H512.798" stroke="#9D8D72" stroke-width="2" stroke-miterlimit="10"/>
<path d="M1.5 965.911H512.798" stroke="#9D8D72" stroke-width="2" stroke-miterlimit="10"/>
<path d="M455.443 909.143V1363.14" stroke="#9D8D72" stroke-width="2" stroke-miterlimit="10"/>
<path d="M399.443 909.143V1363.14" stroke="#9D8D72" stroke-width="2" stroke-miterlimit="10"/>
<path d="M342.443 909.143V1363.14" stroke="#9D8D72" stroke-width="2" stroke-miterlimit="10"/>
<path d="M285.443 909.143V1363.14" stroke="#9D8D72" stroke-width="2" stroke-miterlimit="10"/>
<path d="M228.443 909.143V1363.14" stroke="#9D8D72" stroke-width="2" stroke-miterlimit="10"/>
<path d="M171.443 909.143V1363.14" stroke="#9D8D72" stroke-width="2" stroke-miterlimit="10"/>
<path d="M115.443 909.143V1363.14" stroke="#9D8D72" stroke-width="2" stroke-miterlimit="10"/>
<path d="M58.4432 909.143V1363.14" stroke="#9D8D72" stroke-width="2" stroke-miterlimit="10"/>
<path d="M1023.5 909.143H512.5V1363.14H1023.5V909.143Z" stroke="#9D8D72" stroke-width="2" stroke-miterlimit="10"/>
<path d="M512.518 1363.29H1023.82" stroke="#9D8D72" stroke-width="2" stroke-miterlimit="10"/>
<path d="M512.518 1306.52H1023.82" stroke="#9D8D72" stroke-width="2" stroke-miterlimit="10"/>
<path d="M512.518 1249.75H1023.82" stroke="#9D8D72" stroke-width="2" stroke-miterlimit="10"/>
<path d="M512.518 1192.99H1023.82" stroke="#9D8D72" stroke-width="2" stroke-miterlimit="10"/>
<path d="M512.518 1136.22H1023.82" stroke="#9D8D72" stroke-width="2" stroke-miterlimit="10"/>
<path d="M512.518 1079.45H1023.82" stroke="#9D8D72" stroke-width="2" stroke-miterlimit="10"/>
<path d="M512.518 1022.68H1023.82" stroke="#9D8D72" stroke-width="2" stroke-miterlimit="10"/>
<path d="M512.518 965.911H1023.82" stroke="#9D8D72" stroke-width="2" stroke-miterlimit="10"/>
<path d="M967.443 909.143V1363.14" stroke="#9D8D72" stroke-width="2" stroke-miterlimit="10"/>
<path d="M910.443 909.143V1363.14" stroke="#9D8D72" stroke-width="2" stroke-miterlimit="10"/>
<path d="M853.443 909.143V1363.14" stroke="#9D8D72" stroke-width="2" stroke-miterlimit="10"/>
<path d="M796.443 909.143V1363.14" stroke="#9D8D72" stroke-width="2" stroke-miterlimit="10"/>
<path d="M739.443 909.143V1363.14" stroke="#9D8D72" stroke-width="2" stroke-miterlimit="10"/>
<path d="M682.443 909.143V1363.14" stroke="#9D8D72" stroke-width="2" stroke-miterlimit="10"/>
<path d="M626.443 909.143V1363.14" stroke="#9D8D72" stroke-width="2" stroke-miterlimit="10"/>
<path d="M569.443 909.143V1363.14" stroke="#9D8D72" stroke-width="2" stroke-miterlimit="10"/>
<path d="M1301.5 909.143H1023.5V1363.14H1301.5V909.143Z" stroke="#9D8D72" stroke-width="2" stroke-miterlimit="10"/>
<path d="M1023.33 1363.29H1301.5" stroke="#9D8D72" stroke-width="2" stroke-miterlimit="10"/>
<path d="M1023.33 1306.52H1301.5" stroke="#9D8D72" stroke-width="2" stroke-miterlimit="10"/>
<path d="M1023.33 1249.75H1301.5" stroke="#9D8D72" stroke-width="2" stroke-miterlimit="10"/>
<path d="M1023.33 1192.99H1301.5" stroke="#9D8D72" stroke-width="2" stroke-miterlimit="10"/>
<path d="M1023.33 1136.22H1301.5" stroke="#9D8D72" stroke-width="2" stroke-miterlimit="10"/>
<path d="M1023.33 1079.45H1301.5" stroke="#9D8D72" stroke-width="2" stroke-miterlimit="10"/>
<path d="M1023.33 1022.68H1301.5" stroke="#9D8D72" stroke-width="2" stroke-miterlimit="10"/>
<path d="M1023.33 965.911H1301.5" stroke="#9D8D72" stroke-width="2" stroke-miterlimit="10"/>
<path d="M1250.44 909.143V1363.14" stroke="#9D8D72" stroke-width="2" stroke-miterlimit="10"/>
<path d="M1193.44 909.143V1363.14" stroke="#9D8D72" stroke-width="2" stroke-miterlimit="10"/>
<path d="M1136.44 909.143V1363.14" stroke="#9D8D72" stroke-width="2" stroke-miterlimit="10"/>
<path d="M1080.44 909.143V1363.14" stroke="#9D8D72" stroke-width="2" stroke-miterlimit="10"/>
<path d="M512.5 455.143H1.5V909.143H512.5V455.143Z" stroke="#9D8D72" stroke-width="2" stroke-miterlimit="10"/>
<path d="M1.5 909.291H512.798" stroke="#9D8D72" stroke-width="2" stroke-miterlimit="10"/>
<path d="M1.5 852.522H512.798" stroke="#9D8D72" stroke-width="2" stroke-miterlimit="10"/>
<path d="M1.5 795.754H512.798" stroke="#9D8D72" stroke-width="2" stroke-miterlimit="10"/>
<path d="M1.5 738.985H512.798" stroke="#9D8D72" stroke-width="2" stroke-miterlimit="10"/>
<path d="M1.5 682.217H512.798" stroke="#9D8D72" stroke-width="2" stroke-miterlimit="10"/>
<path d="M1.5 625.448H512.798" stroke="#9D8D72" stroke-width="2" stroke-miterlimit="10"/>
<path d="M1.5 568.68H512.798" stroke="#9D8D72" stroke-width="2" stroke-miterlimit="10"/>
<path d="M1.5 511.911H512.798" stroke="#9D8D72" stroke-width="2" stroke-miterlimit="10"/>
<path d="M455.443 455.143V909.143" stroke="#9D8D72" stroke-width="2" stroke-miterlimit="10"/>
<path d="M399.443 455.143V909.143" stroke="#9D8D72" stroke-width="2" stroke-miterlimit="10"/>
<path d="M342.443 455.143V909.143" stroke="#9D8D72" stroke-width="2" stroke-miterlimit="10"/>
<path d="M285.443 455.143V909.143" stroke="#9D8D72" stroke-width="2" stroke-miterlimit="10"/>
<path d="M228.443 455.143V909.143" stroke="#9D8D72" stroke-width="2" stroke-miterlimit="10"/>
<path d="M171.443 455.143V909.143" stroke="#9D8D72" stroke-width="2" stroke-miterlimit="10"/>
<path d="M115.443 455.143V909.143" stroke="#9D8D72" stroke-width="2" stroke-miterlimit="10"/>
<path d="M58.4432 455.143V909.143" stroke="#9D8D72" stroke-width="2" stroke-miterlimit="10"/>
<path d="M1023.5 455.143H512.5V909.143H1023.5V455.143Z" stroke="#9D8D72" stroke-width="2" stroke-miterlimit="10"/>
<path d="M512.518 909.291H1023.82" stroke="#9D8D72" stroke-width="2" stroke-miterlimit="10"/>
<path d="M512.518 852.522H1023.82" stroke="#9D8D72" stroke-width="2" stroke-miterlimit="10"/>
<path d="M512.518 795.754H1023.82" stroke="#9D8D72" stroke-width="2" stroke-miterlimit="10"/>
<path d="M512.518 738.985H1023.82" stroke="#9D8D72" stroke-width="2" stroke-miterlimit="10"/>
<path d="M512.518 682.217H1023.82" stroke="#9D8D72" stroke-width="2" stroke-miterlimit="10"/>
<path d="M512.518 625.448H1023.82" stroke="#9D8D72" stroke-width="2" stroke-miterlimit="10"/>
<path d="M512.518 568.68H1023.82" stroke="#9D8D72" stroke-width="2" stroke-miterlimit="10"/>
<path d="M512.518 511.911H1023.82" stroke="#9D8D72" stroke-width="2" stroke-miterlimit="10"/>
<path d="M967.443 455.143V909.143" stroke="#9D8D72" stroke-width="2" stroke-miterlimit="10"/>
<path d="M910.443 455.143V909.143" stroke="#9D8D72" stroke-width="2" stroke-miterlimit="10"/>
<path d="M853.443 455.143V909.143" stroke="#9D8D72" stroke-width="2" stroke-miterlimit="10"/>
<path d="M796.443 455.143V909.143" stroke="#9D8D72" stroke-width="2" stroke-miterlimit="10"/>
<path d="M739.443 455.143V909.143" stroke="#9D8D72" stroke-width="2" stroke-miterlimit="10"/>
<path d="M682.443 455.143V909.143" stroke="#9D8D72" stroke-width="2" stroke-miterlimit="10"/>
<path d="M626.443 455.143V909.143" stroke="#9D8D72" stroke-width="2" stroke-miterlimit="10"/>
<path d="M569.443 455.143V909.143" stroke="#9D8D72" stroke-width="2" stroke-miterlimit="10"/>
<path d="M1301.5 455.143H1023.5V909.143H1301.5V455.143Z" stroke="#9D8D72" stroke-width="2" stroke-miterlimit="10"/>
<path d="M1023.33 909.291H1301.5" stroke="#9D8D72" stroke-width="2" stroke-miterlimit="10"/>
<path d="M1023.33 852.522H1301.5" stroke="#9D8D72" stroke-width="2" stroke-miterlimit="10"/>
<path d="M1023.33 795.754H1301.5" stroke="#9D8D72" stroke-width="2" stroke-miterlimit="10"/>
<path d="M1023.33 738.985H1301.5" stroke="#9D8D72" stroke-width="2" stroke-miterlimit="10"/>
<path d="M1023.33 682.217H1301.5" stroke="#9D8D72" stroke-width="2" stroke-miterlimit="10"/>
<path d="M1023.33 625.448H1301.5" stroke="#9D8D72" stroke-width="2" stroke-miterlimit="10"/>
<path d="M1023.33 568.68H1301.5" stroke="#9D8D72" stroke-width="2" stroke-miterlimit="10"/>
<path d="M1023.33 511.911H1301.5" stroke="#9D8D72" stroke-width="2" stroke-miterlimit="10"/>
<path d="M1250.44 455.143V909.143" stroke="#9D8D72" stroke-width="2" stroke-miterlimit="10"/>
<path d="M1193.44 455.143V909.143" stroke="#9D8D72" stroke-width="2" stroke-miterlimit="10"/>
<path d="M1136.44 455.143V909.143" stroke="#9D8D72" stroke-width="2" stroke-miterlimit="10"/>
<path d="M1080.44 455.143V909.143" stroke="#9D8D72" stroke-width="2" stroke-miterlimit="10"/>
<path d="M512.5 1363.14H1.5V1817.14H512.5V1363.14Z" stroke="#9D8D72" stroke-width="2" stroke-miterlimit="10"/>
<path d="M1.5 1817.29H512.798" stroke="#9D8D72" stroke-width="2" stroke-miterlimit="10"/>
<path d="M1.5 1760.52H512.798" stroke="#9D8D72" stroke-width="2" stroke-miterlimit="10"/>
<path d="M1.5 1703.75H512.798" stroke="#9D8D72" stroke-width="2" stroke-miterlimit="10"/>
<path d="M1.5 1646.99H512.798" stroke="#9D8D72" stroke-width="2" stroke-miterlimit="10"/>
<path d="M1.5 1590.22H512.798" stroke="#9D8D72" stroke-width="2" stroke-miterlimit="10"/>
<path d="M1.5 1533.45H512.798" stroke="#9D8D72" stroke-width="2" stroke-miterlimit="10"/>
<path d="M1.5 1476.68H512.798" stroke="#9D8D72" stroke-width="2" stroke-miterlimit="10"/>
<path d="M1.5 1419.91H512.798" stroke="#9D8D72" stroke-width="2" stroke-miterlimit="10"/>
<path d="M455.443 1363.14V1817.14" stroke="#9D8D72" stroke-width="2" stroke-miterlimit="10"/>
<path d="M399.443 1363.14V1817.14" stroke="#9D8D72" stroke-width="2" stroke-miterlimit="10"/>
<path d="M342.443 1363.14V1817.14" stroke="#9D8D72" stroke-width="2" stroke-miterlimit="10"/>
<path d="M285.443 1363.14V1817.14" stroke="#9D8D72" stroke-width="2" stroke-miterlimit="10"/>
<path d="M228.443 1363.14V1817.14" stroke="#9D8D72" stroke-width="2" stroke-miterlimit="10"/>
<path d="M171.443 1363.14V1817.14" stroke="#9D8D72" stroke-width="2" stroke-miterlimit="10"/>
<path d="M115.443 1363.14V1817.14" stroke="#9D8D72" stroke-width="2" stroke-miterlimit="10"/>
<path d="M58.4432 1363.14V1817.14" stroke="#9D8D72" stroke-width="2" stroke-miterlimit="10"/>
<path d="M1023.5 1363.14H512.5V1817.14H1023.5V1363.14Z" stroke="#9D8D72" stroke-width="2" stroke-miterlimit="10"/>
<path d="M512.518 1817.29H1023.82" stroke="#9D8D72" stroke-width="2" stroke-miterlimit="10"/>
<path d="M512.518 1760.52H1023.82" stroke="#9D8D72" stroke-width="2" stroke-miterlimit="10"/>
<path d="M512.518 1703.75H1023.82" stroke="#9D8D72" stroke-width="2" stroke-miterlimit="10"/>
<path d="M512.518 1646.99H1023.82" stroke="#9D8D72" stroke-width="2" stroke-miterlimit="10"/>
<path d="M512.518 1590.22H1023.82" stroke="#9D8D72" stroke-width="2" stroke-miterlimit="10"/>
<path d="M512.518 1533.45H1023.82" stroke="#9D8D72" stroke-width="2" stroke-miterlimit="10"/>
<path d="M512.518 1476.68H1023.82" stroke="#9D8D72" stroke-width="2" stroke-miterlimit="10"/>
<path d="M512.518 1419.91H1023.82" stroke="#9D8D72" stroke-width="2" stroke-miterlimit="10"/>
<path d="M967.443 1363.14V1817.14" stroke="#9D8D72" stroke-width="2" stroke-miterlimit="10"/>
<path d="M910.443 1363.14V1817.14" stroke="#9D8D72" stroke-width="2" stroke-miterlimit="10"/>
<path d="M853.443 1363.14V1817.14" stroke="#9D8D72" stroke-width="2" stroke-miterlimit="10"/>
<path d="M796.443 1363.14V1817.14" stroke="#9D8D72" stroke-width="2" stroke-miterlimit="10"/>
<path d="M739.443 1363.14V1817.14" stroke="#9D8D72" stroke-width="2" stroke-miterlimit="10"/>
<path d="M682.443 1363.14V1817.14" stroke="#9D8D72" stroke-width="2" stroke-miterlimit="10"/>
<path d="M626.443 1363.14V1817.14" stroke="#9D8D72" stroke-width="2" stroke-miterlimit="10"/>
<path d="M569.443 1363.14V1817.14" stroke="#9D8D72" stroke-width="2" stroke-miterlimit="10"/>
<path d="M1301.5 1363.14H1023.5V1817.14H1301.5V1363.14Z" stroke="#9D8D72" stroke-width="2" stroke-miterlimit="10"/>
<path d="M1023.33 1817.29H1301.5" stroke="#9D8D72" stroke-width="2" stroke-miterlimit="10"/>
<path d="M1023.33 1760.52H1301.5" stroke="#9D8D72" stroke-width="2" stroke-miterlimit="10"/>
<path d="M1023.33 1703.75H1301.5" stroke="#9D8D72" stroke-width="2" stroke-miterlimit="10"/>
<path d="M1023.33 1646.99H1301.5" stroke="#9D8D72" stroke-width="2" stroke-miterlimit="10"/>
<path d="M1023.33 1590.22H1301.5" stroke="#9D8D72" stroke-width="2" stroke-miterlimit="10"/>
<path d="M1023.33 1533.45H1301.5" stroke="#9D8D72" stroke-width="2" stroke-miterlimit="10"/>
<path d="M1023.33 1476.68H1301.5" stroke="#9D8D72" stroke-width="2" stroke-miterlimit="10"/>
<path d="M1023.33 1419.91H1301.5" stroke="#9D8D72" stroke-width="2" stroke-miterlimit="10"/>
<path d="M1250.44 1363.14V1817.14" stroke="#9D8D72" stroke-width="2" stroke-miterlimit="10"/>
<path d="M1193.44 1363.14V1817.14" stroke="#9D8D72" stroke-width="2" stroke-miterlimit="10"/>
<path d="M1136.44 1363.14V1817.14" stroke="#9D8D72" stroke-width="2" stroke-miterlimit="10"/>
<path d="M1080.44 1363.14V1817.14" stroke="#9D8D72" stroke-width="2" stroke-miterlimit="10"/>
<path d="M512.5 1817.14H1.5V2271.14H512.5V1817.14Z" stroke="#9D8D72" stroke-width="2" stroke-miterlimit="10"/>
<path d="M1.5 2271.29H512.798" stroke="#9D8D72" stroke-width="2" stroke-miterlimit="10"/>
<path d="M1.5 2214.52H512.798" stroke="#9D8D72" stroke-width="2" stroke-miterlimit="10"/>
<path d="M1.5 2157.75H512.798" stroke="#9D8D72" stroke-width="2" stroke-miterlimit="10"/>
<path d="M1.5 2100.99H512.798" stroke="#9D8D72" stroke-width="2" stroke-miterlimit="10"/>
<path d="M1.5 2044.22H512.798" stroke="#9D8D72" stroke-width="2" stroke-miterlimit="10"/>
<path d="M1.5 1987.45H512.798" stroke="#9D8D72" stroke-width="2" stroke-miterlimit="10"/>
<path d="M1.5 1930.68H512.798" stroke="#9D8D72" stroke-width="2" stroke-miterlimit="10"/>
<path d="M1.5 1873.91H512.798" stroke="#9D8D72" stroke-width="2" stroke-miterlimit="10"/>
<path d="M455.443 1817.14V2271.14" stroke="#9D8D72" stroke-width="2" stroke-miterlimit="10"/>
<path d="M399.443 1817.14V2271.14" stroke="#9D8D72" stroke-width="2" stroke-miterlimit="10"/>
<path d="M342.443 1817.14V2271.14" stroke="#9D8D72" stroke-width="2" stroke-miterlimit="10"/>
<path d="M285.443 1817.14V2271.14" stroke="#9D8D72" stroke-width="2" stroke-miterlimit="10"/>
<path d="M228.443 1817.14V2271.14" stroke="#9D8D72" stroke-width="2" stroke-miterlimit="10"/>
<path d="M171.443 1817.14V2271.14" stroke="#9D8D72" stroke-width="2" stroke-miterlimit="10"/>
<path d="M115.443 1817.14V2271.14" stroke="#9D8D72" stroke-width="2" stroke-miterlimit="10"/>
<path d="M58.4432 1817.14V2271.14" stroke="#9D8D72" stroke-width="2" stroke-miterlimit="10"/>
<path d="M1023.5 1817.14H512.5V2271.14H1023.5V1817.14Z" stroke="#9D8D72" stroke-width="2" stroke-miterlimit="10"/>
<path d="M512.518 2271.29H1023.82" stroke="#9D8D72" stroke-width="2" stroke-miterlimit="10"/>
<path d="M512.518 2214.52H1023.82" stroke="#9D8D72" stroke-width="2" stroke-miterlimit="10"/>
<path d="M512.518 2157.75H1023.82" stroke="#9D8D72" stroke-width="2" stroke-miterlimit="10"/>
<path d="M512.518 2100.99H1023.82" stroke="#9D8D72" stroke-width="2" stroke-miterlimit="10"/>
<path d="M512.518 2044.22H1023.82" stroke="#9D8D72" stroke-width="2" stroke-miterlimit="10"/>
<path d="M512.518 1987.45H1023.82" stroke="#9D8D72" stroke-width="2" stroke-miterlimit="10"/>
<path d="M512.518 1930.68H1023.82" stroke="#9D8D72" stroke-width="2" stroke-miterlimit="10"/>
<path d="M512.518 1873.91H1023.82" stroke="#9D8D72" stroke-width="2" stroke-miterlimit="10"/>
<path d="M967.443 1817.14V2271.14" stroke="#9D8D72" stroke-width="2" stroke-miterlimit="10"/>
<path d="M910.443 1817.14V2271.14" stroke="#9D8D72" stroke-width="2" stroke-miterlimit="10"/>
<path d="M853.443 1817.14V2271.14" stroke="#9D8D72" stroke-width="2" stroke-miterlimit="10"/>
<path d="M796.443 1817.14V2271.14" stroke="#9D8D72" stroke-width="2" stroke-miterlimit="10"/>
<path d="M739.443 1817.14V2271.14" stroke="#9D8D72" stroke-width="2" stroke-miterlimit="10"/>
<path d="M682.443 1817.14V2271.14" stroke="#9D8D72" stroke-width="2" stroke-miterlimit="10"/>
<path d="M626.443 1817.14V2271.14" stroke="#9D8D72" stroke-width="2" stroke-miterlimit="10"/>
<path d="M569.443 1817.14V2271.14" stroke="#9D8D72" stroke-width="2" stroke-miterlimit="10"/>
<path d="M1301.5 1817.14H1023.5V2271.14H1301.5V1817.14Z" stroke="#9D8D72" stroke-width="2" stroke-miterlimit="10"/>
<path d="M1023.33 2271.29H1301.5" stroke="#9D8D72" stroke-width="2" stroke-miterlimit="10"/>
<path d="M1023.33 2214.52H1301.5" stroke="#9D8D72" stroke-width="2" stroke-miterlimit="10"/>
<path d="M1023.33 2157.75H1301.5" stroke="#9D8D72" stroke-width="2" stroke-miterlimit="10"/>
<path d="M1023.33 2100.99H1301.5" stroke="#9D8D72" stroke-width="2" stroke-miterlimit="10"/>
<path d="M1023.33 2044.22H1301.5" stroke="#9D8D72" stroke-width="2" stroke-miterlimit="10"/>
<path d="M1023.33 1987.45H1301.5" stroke="#9D8D72" stroke-width="2" stroke-miterlimit="10"/>
<path d="M1023.33 1930.68H1301.5" stroke="#9D8D72" stroke-width="2" stroke-miterlimit="10"/>
<path d="M1023.33 1873.91H1301.5" stroke="#9D8D72" stroke-width="2" stroke-miterlimit="10"/>
<path d="M1250.44 1817.14V2271.14" stroke="#9D8D72" stroke-width="2" stroke-miterlimit="10"/>
<path d="M1193.44 1817.14V2271.14" stroke="#9D8D72" stroke-width="2" stroke-miterlimit="10"/>
<path d="M1136.44 1817.14V2271.14" stroke="#9D8D72" stroke-width="2" stroke-miterlimit="10"/>
<path d="M1080.44 1817.14V2271.14" stroke="#9D8D72" stroke-width="2" stroke-miterlimit="10"/>
<path d="M512.5 2271.14H1.5V2725.14H512.5V2271.14Z" stroke="#9D8D72" stroke-width="2" stroke-miterlimit="10"/>
<path d="M1.5 2725.29H512.798" stroke="#9D8D72" stroke-width="2" stroke-miterlimit="10"/>
<path d="M1.5 2668.52H512.798" stroke="#9D8D72" stroke-width="2" stroke-miterlimit="10"/>
<path d="M1.5 2611.75H512.798" stroke="#9D8D72" stroke-width="2" stroke-miterlimit="10"/>
<path d="M1.5 2554.98H512.798" stroke="#9D8D72" stroke-width="2" stroke-miterlimit="10"/>
<path d="M1.5 2498.22H512.798" stroke="#9D8D72" stroke-width="2" stroke-miterlimit="10"/>
<path d="M1.5 2441.45H512.798" stroke="#9D8D72" stroke-width="2" stroke-miterlimit="10"/>
<path d="M1.5 2384.68H512.798" stroke="#9D8D72" stroke-width="2" stroke-miterlimit="10"/>
<path d="M1.5 2327.91H512.798" stroke="#9D8D72" stroke-width="2" stroke-miterlimit="10"/>
<path d="M455.443 2271.14V2725.14" stroke="#9D8D72" stroke-width="2" stroke-miterlimit="10"/>
<path d="M399.443 2271.14V2725.14" stroke="#9D8D72" stroke-width="2" stroke-miterlimit="10"/>
<path d="M342.443 2271.14V2725.14" stroke="#9D8D72" stroke-width="2" stroke-miterlimit="10"/>
<path d="M285.443 2271.14V2725.14" stroke="#9D8D72" stroke-width="2" stroke-miterlimit="10"/>
<path d="M228.443 2271.14V2725.14" stroke="#9D8D72" stroke-width="2" stroke-miterlimit="10"/>
<path d="M171.443 2271.14V2725.14" stroke="#9D8D72" stroke-width="2" stroke-miterlimit="10"/>
<path d="M115.443 2271.14V2725.14" stroke="#9D8D72" stroke-width="2" stroke-miterlimit="10"/>
<path d="M58.4432 2271.14V2725.14" stroke="#9D8D72" stroke-width="2" stroke-miterlimit="10"/>
<path d="M1023.5 2271.14H512.5V2725.14H1023.5V2271.14Z" stroke="#9D8D72" stroke-width="2" stroke-miterlimit="10"/>
<path d="M512.518 2725.29H1023.82" stroke="#9D8D72" stroke-width="2" stroke-miterlimit="10"/>
<path d="M512.518 2668.52H1023.82" stroke="#9D8D72" stroke-width="2" stroke-miterlimit="10"/>
<path d="M512.518 2611.75H1023.82" stroke="#9D8D72" stroke-width="2" stroke-miterlimit="10"/>
<path d="M512.518 2554.98H1023.82" stroke="#9D8D72" stroke-width="2" stroke-miterlimit="10"/>
<path d="M512.518 2498.22H1023.82" stroke="#9D8D72" stroke-width="2" stroke-miterlimit="10"/>
<path d="M512.518 2441.45H1023.82" stroke="#9D8D72" stroke-width="2" stroke-miterlimit="10"/>
<path d="M512.518 2384.68H1023.82" stroke="#9D8D72" stroke-width="2" stroke-miterlimit="10"/>
<path d="M512.518 2327.91H1023.82" stroke="#9D8D72" stroke-width="2" stroke-miterlimit="10"/>
<path d="M967.443 2271.14V2725.14" stroke="#9D8D72" stroke-width="2" stroke-miterlimit="10"/>
<path d="M910.443 2271.14V2725.14" stroke="#9D8D72" stroke-width="2" stroke-miterlimit="10"/>
<path d="M853.443 2271.14V2725.14" stroke="#9D8D72" stroke-width="2" stroke-miterlimit="10"/>
<path d="M796.443 2271.14V2725.14" stroke="#9D8D72" stroke-width="2" stroke-miterlimit="10"/>
<path d="M739.443 2271.14V2725.14" stroke="#9D8D72" stroke-width="2" stroke-miterlimit="10"/>
<path d="M682.443 2271.14V2725.14" stroke="#9D8D72" stroke-width="2" stroke-miterlimit="10"/>
<path d="M626.443 2271.14V2725.14" stroke="#9D8D72" stroke-width="2" stroke-miterlimit="10"/>
<path d="M569.443 2271.14V2725.14" stroke="#9D8D72" stroke-width="2" stroke-miterlimit="10"/>
<path d="M1301.5 2271.14H1023.5V2725.14H1301.5V2271.14Z" stroke="#9D8D72" stroke-width="2" stroke-miterlimit="10"/>
<path d="M1023.33 2725.29H1301.5" stroke="#9D8D72" stroke-width="2" stroke-miterlimit="10"/>
<path d="M1023.33 2668.52H1301.5" stroke="#9D8D72" stroke-width="2" stroke-miterlimit="10"/>
<path d="M1023.33 2611.75H1301.5" stroke="#9D8D72" stroke-width="2" stroke-miterlimit="10"/>
<path d="M1023.33 2554.98H1301.5" stroke="#9D8D72" stroke-width="2" stroke-miterlimit="10"/>
<path d="M1023.33 2498.22H1301.5" stroke="#9D8D72" stroke-width="2" stroke-miterlimit="10"/>
<path d="M1023.33 2441.45H1301.5" stroke="#9D8D72" stroke-width="2" stroke-miterlimit="10"/>
<path d="M1023.33 2384.68H1301.5" stroke="#9D8D72" stroke-width="2" stroke-miterlimit="10"/>
<path d="M1023.33 2327.91H1301.5" stroke="#9D8D72" stroke-width="2" stroke-miterlimit="10"/>
<path d="M1250.44 2271.14V2725.14" stroke="#9D8D72" stroke-width="2" stroke-miterlimit="10"/>
<path d="M1193.44 2271.14V2725.14" stroke="#9D8D72" stroke-width="2" stroke-miterlimit="10"/>
<path d="M1136.44 2271.14V2725.14" stroke="#9D8D72" stroke-width="2" stroke-miterlimit="10"/>
<path d="M1080.44 2271.14V2725.14" stroke="#9D8D72" stroke-width="2" stroke-miterlimit="10"/>
<path d="M512.5 2725.14H1.5V3179.14H512.5V2725.14Z" stroke="#9D8D72" stroke-width="2" stroke-miterlimit="10"/>
<path d="M1.5 3179.29H512.798" stroke="#9D8D72" stroke-width="2" stroke-miterlimit="10"/>
<path d="M1.5 3122.52H512.798" stroke="#9D8D72" stroke-width="2" stroke-miterlimit="10"/>
<path d="M1.5 3065.75H512.798" stroke="#9D8D72" stroke-width="2" stroke-miterlimit="10"/>
<path d="M1.5 3008.98H512.798" stroke="#9D8D72" stroke-width="2" stroke-miterlimit="10"/>
<path d="M1.5 2952.22H512.798" stroke="#9D8D72" stroke-width="2" stroke-miterlimit="10"/>
<path d="M1.5 2895.45H512.798" stroke="#9D8D72" stroke-width="2" stroke-miterlimit="10"/>
<path d="M1.5 2838.68H512.798" stroke="#9D8D72" stroke-width="2" stroke-miterlimit="10"/>
<path d="M1.5 2781.91H512.798" stroke="#9D8D72" stroke-width="2" stroke-miterlimit="10"/>
<path d="M455.443 2725.14V3179.14" stroke="#9D8D72" stroke-width="2" stroke-miterlimit="10"/>
<path d="M399.443 2725.14V3179.14" stroke="#9D8D72" stroke-width="2" stroke-miterlimit="10"/>
<path d="M342.443 2725.14V3179.14" stroke="#9D8D72" stroke-width="2" stroke-miterlimit="10"/>
<path d="M285.443 2725.14V3179.14" stroke="#9D8D72" stroke-width="2" stroke-miterlimit="10"/>
<path d="M228.443 2725.14V3179.14" stroke="#9D8D72" stroke-width="2" stroke-miterlimit="10"/>
<path d="M171.443 2725.14V3179.14" stroke="#9D8D72" stroke-width="2" stroke-miterlimit="10"/>
<path d="M115.443 2725.14V3179.14" stroke="#9D8D72" stroke-width="2" stroke-miterlimit="10"/>
<path d="M58.4432 2725.14V3179.14" stroke="#9D8D72" stroke-width="2" stroke-miterlimit="10"/>
<path d="M1023.5 2725.14H512.5V3179.14H1023.5V2725.14Z" stroke="#9D8D72" stroke-width="2" stroke-miterlimit="10"/>
<path d="M512.518 3179.29H1023.82" stroke="#9D8D72" stroke-width="2" stroke-miterlimit="10"/>
<path d="M512.518 3122.52H1023.82" stroke="#9D8D72" stroke-width="2" stroke-miterlimit="10"/>
<path d="M512.518 3065.75H1023.82" stroke="#9D8D72" stroke-width="2" stroke-miterlimit="10"/>
<path d="M512.518 3008.98H1023.82" stroke="#9D8D72" stroke-width="2" stroke-miterlimit="10"/>
<path d="M512.518 2952.22H1023.82" stroke="#9D8D72" stroke-width="2" stroke-miterlimit="10"/>
<path d="M512.518 2895.45H1023.82" stroke="#9D8D72" stroke-width="2" stroke-miterlimit="10"/>
<path d="M512.518 2838.68H1023.82" stroke="#9D8D72" stroke-width="2" stroke-miterlimit="10"/>
<path d="M512.518 2781.91H1023.82" stroke="#9D8D72" stroke-width="2" stroke-miterlimit="10"/>
<path d="M967.443 2725.14V3179.14" stroke="#9D8D72" stroke-width="2" stroke-miterlimit="10"/>
<path d="M910.443 2725.14V3179.14" stroke="#9D8D72" stroke-width="2" stroke-miterlimit="10"/>
<path d="M853.443 2725.14V3179.14" stroke="#9D8D72" stroke-width="2" stroke-miterlimit="10"/>
<path d="M796.443 2725.14V3179.14" stroke="#9D8D72" stroke-width="2" stroke-miterlimit="10"/>
<path d="M739.443 2725.14V3179.14" stroke="#9D8D72" stroke-width="2" stroke-miterlimit="10"/>
<path d="M682.443 2725.14V3179.14" stroke="#9D8D72" stroke-width="2" stroke-miterlimit="10"/>
<path d="M626.443 2725.14V3179.14" stroke="#9D8D72" stroke-width="2" stroke-miterlimit="10"/>
<path d="M569.443 2725.14V3179.14" stroke="#9D8D72" stroke-width="2" stroke-miterlimit="10"/>
<path d="M1301.5 2725.14H1023.5V3179.14H1301.5V2725.14Z" stroke="#9D8D72" stroke-width="2" stroke-miterlimit="10"/>
<path d="M1023.33 3179.29H1301.5" stroke="#9D8D72" stroke-width="2" stroke-miterlimit="10"/>
<path d="M1023.33 3122.52H1301.5" stroke="#9D8D72" stroke-width="2" stroke-miterlimit="10"/>
<path d="M1023.33 3065.75H1301.5" stroke="#9D8D72" stroke-width="2" stroke-miterlimit="10"/>
<path d="M1023.33 3008.98H1301.5" stroke="#9D8D72" stroke-width="2" stroke-miterlimit="10"/>
<path d="M1023.33 2952.22H1301.5" stroke="#9D8D72" stroke-width="2" stroke-miterlimit="10"/>
<path d="M1023.33 2895.45H1301.5" stroke="#9D8D72" stroke-width="2" stroke-miterlimit="10"/>
<path d="M1023.33 2838.68H1301.5" stroke="#9D8D72" stroke-width="2" stroke-miterlimit="10"/>
<path d="M1023.33 2781.91H1301.5" stroke="#9D8D72" stroke-width="2" stroke-miterlimit="10"/>
<path d="M1250.44 2725.14V3179.14" stroke="#9D8D72" stroke-width="2" stroke-miterlimit="10"/>
<path d="M1193.44 2725.14V3179.14" stroke="#9D8D72" stroke-width="2" stroke-miterlimit="10"/>
<path d="M1136.44 2725.14V3179.14" stroke="#9D8D72" stroke-width="2" stroke-miterlimit="10"/>
<path d="M1080.44 2725.14V3179.14" stroke="#9D8D72" stroke-width="2" stroke-miterlimit="10"/>
</g>
</svg>
