<svg width="140" height="32" viewBox="0 0 140 32" fill="none" xmlns="http://www.w3.org/2000/svg">
  <!-- Official Kickstarter logo design -->
  <g fill="currentColor">
    <!-- Kickstarter "K" -->
    <path d="M4 4h4v10l8-10h5l-8 10 9 14h-5l-7-11-2 2v9H4V4z"/>

    <!-- "ickstarter" text -->
    <path d="M28 8h3v20h-3V8z"/>
    <path d="M36 14c0-4 3-7 7-7 2.5 0 4.5 1.2 6 3l-2 2c-1-1.2-2.5-2-4-2-2.5 0-4.5 2-4.5 4.5s2 4.5 4.5 4.5c1.5 0 3-0.8 4-2l2 2c-1.5 1.8-3.5 3-6 3-4 0-7-3-7-7z"/>
    <path d="M54 8h3v12l8-12h3.5l-7 10 8 14h-3.5l-6.5-11-2 2.5V28h-3V8z"/>
    <path d="M74 21c0-1.7 1.3-3 3-3s3 1.3 3 3-1.3 3-3 3-3-1.3-3-3z"/>
    <path d="M84 21c0-1.7 1.3-3 3-3s3 1.3 3 3-1.3 3-3 3-3-1.3-3-3z"/>
    <path d="M94 21c0-1.7 1.3-3 3-3s3 1.3 3 3-1.3 3-3 3-3-1.3-3-3z"/>
    <path d="M104 8h3v5h5v3h-5v8c0 1.5 1 2.5 2.5 2.5H112v3h-2.5c-3 0-5.5-2.5-5.5-5.5V16h-3v-3h3V8z"/>
    <path d="M118 14c0-4 3-7 7-7 2.5 0 4.5 1.2 6 3l-2 2c-1-1.2-2.5-2-4-2-2.5 0-4.5 2-4.5 4.5s2 4.5 4.5 4.5c1.5 0 3-0.8 4-2l2 2c-1.5 1.8-3.5 3-6 3-4 0-7-3-7-7z"/>
    <path d="M134 8h3v5h3v3h-3v12h-3V16h-2v-3h2V8z"/>
  </g>
</svg>
