<svg width="21" height="22" viewBox="0 0 21 22" fill="none" xmlns="http://www.w3.org/2000/svg">
<path d="M18.75 21.5H2.25C0.984375 21.5 0 20.5156 0 19.25V2.75C0 1.53125 0.984375 0.5 2.25 0.5H18.75C19.9688 0.5 21 1.53125 21 2.75V19.25C21 20.5156 19.9688 21.5 18.75 21.5ZM9.32812 7.39062C9.32812 5.9375 8.53125 5.28125 7.45312 5.28125C6.28125 5.28125 5.57812 6.21875 5.57812 7.34375V14.6094C5.57812 15.8281 6.23438 16.7656 7.5 16.7656C8.48438 16.7656 9.32812 16.1094 9.32812 14.6094V12.6406L12.1875 16.2031C12.75 16.9062 14.0156 17 14.8125 16.2031C15.4688 15.5 15.4688 14.4688 15 13.8594L12.6562 10.9062L14.5781 8.14062C15 7.53125 15 6.54688 14.2969 5.84375C13.5469 5.09375 12.2344 5.04688 11.4375 6.17188L9.32812 9.21875V7.39062Z" fill="white"/>
</svg>
