<svg width="89" height="219" viewBox="0 0 89 219" fill="none" xmlns="http://www.w3.org/2000/svg">
<g clip-path="url(#clip0_1_278)">
<path d="M9.49041 217.641L9.49041 218.992L89 218.992L89 217.641L9.49041 217.641Z" fill="#2B2B2B"/>
<path d="M9.49041 200.033L9.49041 202.735L89 202.735L89 200.033L9.49041 200.033Z" fill="#2B2B2B"/>
<path d="M9.49041 181.004L9.49041 185.057L89 185.057L89 181.004L9.49041 181.004Z" fill="#2B2B2B"/>
<path d="M9.49041 159.443L9.49041 164.847L89 164.847L89 159.443L9.49041 159.443Z" fill="#2B2B2B"/>
<path d="M9.49041 137.868L9.49041 144.624L89 144.624L89 137.868L9.49041 137.868Z" fill="#2B2B2B"/>
<path d="M9.49041 118.906L9.49041 127.013L89 127.013L89 118.906L9.49041 118.906Z" fill="#2B2B2B"/>
<path d="M9.49041 99.999L9.49041 109.457L89 109.457L89 99.999L9.49041 99.999Z" fill="#2B2B2B"/>
<path d="M9.49041 81.0888L9.49041 91.8977L89 91.8977L89 81.0888L9.49041 81.0888Z" fill="#2B2B2B"/>
<path d="M9.49041 59.4627L9.49041 74.325L89 74.325L89 59.4627L9.49041 59.4627Z" fill="#2B2B2B"/>
<path d="M9.49041 37.7854L9.49041 53.9988L89 53.9988L89 37.7854L9.49041 37.7854Z" fill="#2B2B2B"/>
<path d="M9.49041 18.9049L9.49041 33.7672L89 33.7672L89 18.9049L9.49041 18.9049Z" fill="#2B2B2B"/>
<path d="M9.49042 0.00814247L9.49041 16.2216L89 16.2216L89 0.00814595L9.49042 0.00814247Z" fill="#2B2B2B"/>
<path d="M9.49811 1.00134L9.49811 0.00134277L-0.113892 0.00134235L-0.113892 1.00134L9.49811 1.00134Z" fill="#2B2B2B"/>
<path d="M9.49811 19.0013L9.49811 16.0013L-0.113893 16.0013L-0.113893 19.0013L9.49811 19.0013Z" fill="#2B2B2B"/>
<path d="M9.49811 38.0013L9.49811 34.0013L-0.113894 34.0013L-0.113894 38.0013L9.49811 38.0013Z" fill="#2B2B2B"/>
<path d="M9.49811 59.0013L9.49811 54.0013L-0.113894 54.0013L-0.113894 59.0013L9.49811 59.0013Z" fill="#2B2B2B"/>
<path d="M9.4981 81.0013L9.49811 74.0013L-0.113894 74.0013L-0.113895 81.0013L9.4981 81.0013Z" fill="#2B2B2B"/>
<path d="M9.4981 100.001L9.4981 92.0013L-0.113895 92.0013L-0.113896 100.001L9.4981 100.001Z" fill="#2B2B2B"/>
<path d="M9.4981 119.001L9.4981 109.001L-0.113896 109.001L-0.113897 119.001L9.4981 119.001Z" fill="#2B2B2B"/>
<path d="M9.4981 138.001L9.4981 127.001L-0.113897 127.001L-0.113898 138.001L9.4981 138.001Z" fill="#2B2B2B"/>
<path d="M9.4981 159.001L9.4981 145.001L-0.113898 145.001L-0.113899 159.001L9.4981 159.001Z" fill="#2B2B2B"/>
<path d="M9.4981 181.001L9.4981 165.001L-0.113899 165.001L-0.1139 181.001L9.4981 181.001Z" fill="#2B2B2B"/>
<path d="M9.4981 200.001L9.4981 185.001L-0.113899 185.001L-0.1139 200.001L9.4981 200.001Z" fill="#2B2B2B"/>
<path d="M9.4981 219.001L9.4981 203.001L-0.1139 203.001L-0.113901 219.001L9.4981 219.001Z" fill="#2B2B2B"/>
</g>
<defs>
<clipPath id="clip0_1_278">
<rect width="219" height="89" fill="white" transform="translate(0 219) rotate(-90)"/>
</clipPath>
</defs>
</svg>
