<svg width="483" height="295" viewBox="0 0 483 295" fill="none" xmlns="http://www.w3.org/2000/svg">
<path d="M482.143 54.0173L482.143 0.589783L361.593 0.589777L361.593 54.0173L482.143 54.0173Z" fill="#00AEEF"/>
<path d="M240.55 54.4275L240.55 1L120 0.999995L120 54.4275L240.55 54.4275Z" fill="#00AEEF"/>
<path d="M361.598 107.486L361.598 54.0588L241.048 54.0588L241.048 107.486L361.598 107.486Z" fill="#00AEEF"/>
<path d="M482.143 214.36L482.143 187.646L361.593 187.646L361.593 214.36L482.143 214.36Z" fill="#00AEEF"/>
<path d="M361.598 241.11L361.598 214.397L241.048 214.397L241.048 241.11L361.598 241.11Z" fill="#00AEEF"/>
<path d="M241.113 160.167L241.113 106.74L120.563 106.74L120.563 160.167L241.113 160.167Z" fill="#00AEEF"/>
<path d="M241.113 267.843L241.113 241.129L120.563 241.129L120.563 267.843L241.113 267.843Z" fill="#00AEEF"/>
<path d="M120.55 214.258L120.55 160.831L7.62939e-06 160.831L5.294e-06 214.258L120.55 214.258Z" fill="#00AEEF"/>
<path d="M120.55 294.565L120.55 267.852L7.62939e-06 267.852L6.4617e-06 294.565L120.55 294.565Z" fill="#00AEEF"/>
<path d="M120.55 107.606L120.55 0.74646L7.62939e-06 0.746455L2.95841e-06 107.606L120.55 107.606Z" fill="#00AEEF"/>
</svg>
