<svg width="219" height="7" viewBox="0 0 219 7" fill="none" xmlns="http://www.w3.org/2000/svg">
<path d="M218 7H219V0H218V7Z" fill="#00AEEF"/>
<path d="M200 7H203V0H200V7Z" fill="#00AEEF"/>
<path d="M181 7H185V0H181V7Z" fill="#00AEEF"/>
<path d="M160 7H165V0H160V7Z" fill="#00AEEF"/>
<path d="M138 7H145V0H138V7Z" fill="#00AEEF"/>
<path d="M119 7H127L127 0H119L119 7Z" fill="#00AEEF"/>
<path d="M100 7H110L110 0H100L100 7Z" fill="#00AEEF"/>
<path d="M81 7H92L92 0H81L81 7Z" fill="#00AEEF"/>
<path d="M60 7H74L74 0H60L60 7Z" fill="#00AEEF"/>
<path d="M38 7H54L54 0H38L38 7Z" fill="#00AEEF"/>
<path d="M19 7H34L34 0H19L19 7Z" fill="#00AEEF"/>
<path d="M0 7H16L16 0H0L0 7Z" fill="#00AEEF"/>
</svg>
