<svg width="481" height="826" viewBox="0 0 481 826" fill="none" xmlns="http://www.w3.org/2000/svg">
<path d="M480.143 585.017L480.143 531.59L359.593 531.59L359.593 585.017L480.143 585.017Z" fill="#00AEEF"/>
<path d="M359.598 638.486L359.598 585.059L239.048 585.059L239.048 638.486L359.598 638.486Z" fill="#00AEEF"/>
<path d="M480.143 745.36L480.143 718.646L359.593 718.646L359.593 745.36L480.143 745.36Z" fill="#00AEEF"/>
<path d="M359.598 772.11L359.598 745.396L239.048 745.396L239.048 772.11L359.598 772.11Z" fill="#00AEEF"/>
<path d="M480.143 478.853L480.143 371.994L359.593 371.994L359.593 478.853L480.143 478.853Z" fill="#00AEEF"/>
<path d="M359.598 532.318L359.598 425.458L239.048 425.458L239.048 532.318L359.598 532.318Z" fill="#00AEEF"/>
<path d="M239.113 691.167L239.113 637.74L118.563 637.74L118.563 691.167L239.113 691.167Z" fill="#00AEEF"/>
<path d="M239.113 798.842L239.113 772.129L118.563 772.129L118.563 798.842L239.113 798.842Z" fill="#00AEEF"/>
<path d="M239.113 585.003L239.113 478.144L118.563 478.144L118.563 585.003L239.113 585.003Z" fill="#00AEEF"/>
<path d="M118.55 745.258L118.55 691.831L-1.99999 691.831L-1.99999 745.258L118.55 745.258Z" fill="#00AEEF"/>
<path d="M118.55 825.565L118.55 798.852L-1.99999 798.852L-1.99999 825.565L118.55 825.565Z" fill="#00AEEF"/>
<path d="M118.55 637.606L118.55 530.746L-1.99999 530.746L-2 637.606L118.55 637.606Z" fill="#00AEEF"/>
</svg>
