<svg width="109" height="25" viewBox="0 0 109 25" fill="none" xmlns="http://www.w3.org/2000/svg">
<path d="M50.6444 19.3071H35.0279V0.5H29.6506V24.5H50.6444V19.3071ZM0 0.522252V24.5H6.59172V6.84794H18.7421V24.5H25.3338V6.5172C25.3338 5.44201 25.0471 4.44976 24.4725 3.54046C23.9265 2.63115 23.1801 1.90088 22.2324 1.34963C21.2847 0.798382 20.2358 0.522252 19.0868 0.522252H0ZM54.9865 24.5V5.46022C54.9865 4.5499 55.2174 3.7296 55.6801 2.9973C56.1429 2.24275 56.767 1.64396 57.5534 1.19993C58.3398 0.7559 59.1958 0.53439 60.1203 0.53439H74.7954C75.7441 0.53439 76.5991 0.7559 77.3623 1.19993C78.1487 1.64396 78.7728 2.24275 79.2355 2.9973C79.7215 3.7296 79.964 4.55091 79.964 5.46022V24.5H74.5171V16.7775H60.3628V24.5H54.9854H54.9865ZM60.3638 11.5846H74.5181V5.72623H60.3638V11.5846ZM84.0225 0.533378V24.5H103.831C104.78 24.5 105.636 24.2785 106.398 23.8345C107.185 23.3904 107.81 22.7916 108.272 22.0371C108.758 21.2825 109 20.4612 109 19.5742V14.614C109 14.0597 108.884 13.5044 108.653 12.9501C108.422 12.3958 108.132 11.9073 107.786 11.4855C107.878 11.264 107.935 11.0303 107.96 10.7866C108.006 10.5206 108.029 10.2424 108.029 9.95415V5.46022C108.029 4.5499 107.786 3.7296 107.3 2.9973C106.837 2.24275 106.213 1.64396 105.427 1.19993C104.663 0.7559 103.82 0.53439 102.894 0.53439H84.0215L84.0225 0.533378ZM103.554 19.3071H89.3998V14.9134H103.554V19.3071ZM102.582 9.7205H89.3998V5.72623H102.582V9.7205Z" fill="#FFC928"/>
</svg>
