<?xml version="1.0" encoding="UTF-8"?>
<svg id="Layer_2" data-name="Layer 2" xmlns="http://www.w3.org/2000/svg" viewBox="0 0 1780.84 2156.9">
  <defs>
    <style>
      .cls-1 {
        fill: #fff;
      }
    </style>
  </defs>
  <g id="Layer_1-2" data-name="Layer 1">
    <g>
      <path class="cls-1" d="M906,0c434.35,25.02,697.1,498.66,476.34,879.34-213.76,368.64-739.84,390.73-984.79,42.1C132.3,543.91,390.29,26.97,846,0h60ZM1148,854v-423c0-16.01-21.35-53.26-32.06-65.94-19.33-22.89-60.44-47.06-90.94-47.06h-419v536h140v-394h262v394h140Z"/>
      <path class="cls-1" d="M1458,1522l-1.99,243.99c3.94,1.02,3.87-1.62,5.62-3.36,4.91-4.85,10.32-13.38,15.07-17.93,67-64.17,193.45-59.17,253.24,12.36,68.03,81.38,68,261.98-.92,342.96-57.34,67.38-178.05,76.38-245.05,19-5.67-4.85-21.29-24.58-23.92-26.09-1.97-1.13-3.87-1.16-6.03-.93l-14.02,55.99h-48v-626h66ZM1571.6,1756.6c-93.68,7.12-112.29,80.89-113.69,162.31-1.83,106.42,24.51,191.99,149.06,181.06,69.48-6.1,98.62-75.55,103.01-136.99,7.25-101.7-9.9-216.13-138.38-206.38Z"/>
      <path class="cls-1" d="M1254,2148h-50l-11.98-60.66-5.01-1.39c-29.89,42.66-71.63,66.4-124.03,70.03-82.68,5.73-156.9-25.2-162.95-117.01-7.32-110.99,91.42-143.03,183-150.95,14.24-1.23,102.99-1.42,106.11-5.89,1-30.53,1.3-65.98-15.48-92.77-28.84-46.06-106.76-35.85-151.17-21.88-11.34,3.57-42.82,19.61-49.85,20.29-3.03.29-3.01-1.11-4.21-3.18-7.06-12.17-10.51-31.6-17.65-44.46l1.14-3.07c61.44-32.49,138.03-46.46,206.49-30.46,67.46,15.77,92,64.9,95.68,130.32l-.08,311.08ZM1188,1932c-72.35,4.04-222.62-9.96-218.08,99.1,4.01,96.35,143.57,84.62,190.04,27.86,13.72-16.75,28.04-52.52,28.04-73.96v-53Z"/>
      <path class="cls-1" d="M368,2148h-66l.08-285.08c-1.34-73.25-37.26-109.67-111.18-107.01-87.46,3.14-120.21,55.08-124.99,137.01l.08,255.08H0v-440h54l10.01,59.99c3.93,1.03,3.86-1.63,5.62-3.36,29.5-29.02,38.13-45.33,82.38-57.62,107.4-29.82,217.08,17.31,215.97,140l.02,300.98Z"/>
      <polygon class="cls-1" points="584 1560 584 2086 841 2086 844 2089 844 2148 516 2148 516 1560 584 1560"/>
    </g>
  </g>
</svg>