<svg width="395" height="198" viewBox="0 0 395 198" fill="none" xmlns="http://www.w3.org/2000/svg">
<path d="M98.7576 44.398L98.7576 0.68457L197.519 0.684566L197.519 44.398L98.7576 44.398Z" fill="#F5E9D5"/>
<path d="M3.1473e-05 131.84L3.05176e-05 109.983L98.7614 109.983L98.7614 131.84L3.1473e-05 131.84Z" fill="#F5E9D5"/>
<path d="M98.7576 153.726L98.7576 131.87L197.519 131.87L197.519 153.726L98.7576 153.726Z" fill="#F5E9D5"/>
<path d="M197.466 87.5005L197.466 43.7871L296.227 43.7871L296.227 87.5005L197.466 87.5005Z" fill="#F5E9D5"/>
<path d="M296 44.7134L296 1L394.761 0.999996L394.761 44.7134L296 44.7134Z" fill="#F5E9D5"/>
<path d="M197.466 175.598L197.466 153.742L296.227 153.742L296.227 175.598L197.466 175.598Z" fill="#F5E9D5"/>
<path d="M296.239 131.756L296.239 88.043L395 88.043L395 131.756L296.239 131.756Z" fill="#F5E9D5"/>
<path d="M296.239 197.463L296.239 175.606L395 175.606L395 197.463L296.239 197.463Z" fill="#F5E9D5"/>
</svg>
