<svg width="86" height="219" viewBox="0 0 86 219" fill="none" xmlns="http://www.w3.org/2000/svg">
<g clip-path="url(#clip0_1_303)">
<path d="M79.5096 217.641L79.5096 218.992L5.34058e-05 218.992L5.33467e-05 217.641L79.5096 217.641Z" fill="#2B2B2B"/>
<path d="M79.5096 200.033L79.5096 202.735L5.34058e-05 202.735L5.32876e-05 200.033L79.5096 200.033Z" fill="#2B2B2B"/>
<path d="M79.5096 181.004L79.5096 185.057L5.34058e-05 185.057L5.32286e-05 181.004L79.5096 181.004Z" fill="#2B2B2B"/>
<path d="M79.5096 159.443L79.5096 164.847L5.34058e-05 164.847L5.31695e-05 159.443L79.5096 159.443Z" fill="#2B2B2B"/>
<path d="M79.5096 137.868L79.5096 144.624L5.34058e-05 144.624L5.31105e-05 137.868L79.5096 137.868Z" fill="#2B2B2B"/>
<path d="M79.5096 118.906L79.5096 127.013L5.34058e-05 127.013L5.30514e-05 118.906L79.5096 118.906Z" fill="#2B2B2B"/>
<path d="M79.5096 99.999L79.5096 109.457L5.34058e-05 109.457L5.29923e-05 99.999L79.5096 99.999Z" fill="#2B2B2B"/>
<path d="M79.5096 81.0887L79.5096 91.8976L5.34058e-05 91.8976L5.29333e-05 81.0887L79.5096 81.0887Z" fill="#2B2B2B"/>
<path d="M79.5096 59.4627L79.5096 74.325L5.34058e-05 74.325L5.27561e-05 59.4627L79.5096 59.4627Z" fill="#2B2B2B"/>
<path d="M79.5096 37.7854L79.5096 53.9988L5.34058e-05 53.9988L5.26971e-05 37.7854L79.5096 37.7854Z" fill="#2B2B2B"/>
<path d="M79.5096 18.9049L79.5096 33.7672L5.34058e-05 33.7672L5.27561e-05 18.9049L79.5096 18.9049Z" fill="#2B2B2B"/>
<path d="M79.5096 0.00814247L79.5096 16.2216L5.34058e-05 16.2216L5.26971e-05 0.00814595L79.5096 0.00814247Z" fill="#2B2B2B"/>
<path d="M79.5018 1.00134L79.5018 0.00134277L89.1138 0.00134235L89.1138 1.00134L79.5018 1.00134Z" fill="#2B2B2B"/>
<path d="M79.502 19.0013L79.502 16.0013L89.114 16.0013L89.114 19.0013L79.502 19.0013Z" fill="#2B2B2B"/>
<path d="M79.502 38.0013L79.502 34.0013L89.114 34.0013L89.114 38.0013L79.502 38.0013Z" fill="#2B2B2B"/>
<path d="M79.502 59.0013L79.502 54.0013L89.114 54.0013L89.114 59.0013L79.502 59.0013Z" fill="#2B2B2B"/>
<path d="M79.502 81.0013L79.502 74.0013L89.114 74.0013L89.114 81.0013L79.502 81.0013Z" fill="#2B2B2B"/>
<path d="M79.502 100.001L79.502 92.0013L89.114 92.0013L89.114 100.001L79.502 100.001Z" fill="#2B2B2B"/>
<path d="M79.502 119.001L79.502 109.001L89.114 109.001L89.114 119.001L79.502 119.001Z" fill="#2B2B2B"/>
<path d="M79.502 138.001L79.502 127.001L89.114 127.001L89.114 138.001L79.502 138.001Z" fill="#2B2B2B"/>
<path d="M79.502 159.001L79.502 145.001L89.114 145.001L89.114 159.001L79.502 159.001Z" fill="#2B2B2B"/>
<path d="M79.502 181.001L79.502 165.001L89.114 165.001L89.114 181.001L79.502 181.001Z" fill="#2B2B2B"/>
<path d="M79.502 200.001L79.502 185.001L89.114 185.001L89.114 200.001L79.502 200.001Z" fill="#2B2B2B"/>
<path d="M79.502 219.001L79.502 203.001L89.114 203.001L89.114 219.001L79.502 219.001Z" fill="#2B2B2B"/>
</g>
<defs>
<clipPath id="clip0_1_303">
<rect width="219" height="89" fill="white" transform="matrix(-4.37114e-08 -1 -1 4.37114e-08 89 219)"/>
</clipPath>
</defs>
</svg>
