<svg width="482" height="826" viewBox="0 0 482 826" fill="none" xmlns="http://www.w3.org/2000/svg">
<path d="M2.33539e-06 585.017L0 531.59L120.55 531.59L120.55 585.017L2.33539e-06 585.017Z" fill="#F5E9D5"/>
<path d="M120.545 638.486L120.545 585.059L241.094 585.059L241.094 638.486L120.545 638.486Z" fill="#F5E9D5"/>
<path d="M6.22029e-05 745.36L6.10352e-05 718.646L120.55 718.646L120.55 745.36L6.22029e-05 745.36Z" fill="#F5E9D5"/>
<path d="M120.545 772.11L120.545 745.396L241.094 745.396L241.094 772.11L120.545 772.11Z" fill="#F5E9D5"/>
<path d="M120.545 532.318L120.545 425.458L241.094 425.458L241.094 532.318L120.545 532.318Z" fill="#F5E9D5"/>
<path d="M241.03 691.167L241.03 637.74L361.579 637.74L361.579 691.167L241.03 691.167Z" fill="#F5E9D5"/>
<path d="M241.03 798.842L241.03 772.129L361.579 772.129L361.579 798.842L241.03 798.842Z" fill="#F5E9D5"/>
<path d="M241.03 585.003L241.03 478.144L361.579 478.144L361.579 585.003L241.03 585.003Z" fill="#F5E9D5"/>
<path d="M361.593 745.258L361.593 691.831L482.143 691.831L482.143 745.258L361.593 745.258Z" fill="#F5E9D5"/>
<path d="M361.593 825.565L361.593 798.852L482.143 798.852L482.143 825.565L361.593 825.565Z" fill="#F5E9D5"/>
<path d="M361 638L361 530L482 530L482 638L361 638Z" fill="#F5E9D5"/>
</svg>
