<svg width="1302" height="1819" viewBox="0 0 1302 1819" fill="none" xmlns="http://www.w3.org/2000/svg">
<g opacity="0.05">
<path d="M512 1H1V455H512V1Z" stroke="#FFF5E4" stroke-width="2" stroke-miterlimit="10"/>
<path d="M1 455.148H512.298" stroke="#FFF5E4" stroke-width="2" stroke-miterlimit="10"/>
<path d="M1 398.38H512.298" stroke="#FFF5E4" stroke-width="2" stroke-miterlimit="10"/>
<path d="M1 341.611H512.298" stroke="#FFF5E4" stroke-width="2" stroke-miterlimit="10"/>
<path d="M1 284.843H512.298" stroke="#FFF5E4" stroke-width="2" stroke-miterlimit="10"/>
<path d="M1 228.074H512.298" stroke="#FFF5E4" stroke-width="2" stroke-miterlimit="10"/>
<path d="M1 171.306H512.298" stroke="#FFF5E4" stroke-width="2" stroke-miterlimit="10"/>
<path d="M1 114.537H512.298" stroke="#FFF5E4" stroke-width="2" stroke-miterlimit="10"/>
<path d="M1 57.7685H512.298" stroke="#FFF5E4" stroke-width="2" stroke-miterlimit="10"/>
<path d="M454.943 1V455" stroke="#FFF5E4" stroke-width="2" stroke-miterlimit="10"/>
<path d="M398.943 1V455" stroke="#FFF5E4" stroke-width="2" stroke-miterlimit="10"/>
<path d="M341.943 1V455" stroke="#FFF5E4" stroke-width="2" stroke-miterlimit="10"/>
<path d="M284.943 1V455" stroke="#FFF5E4" stroke-width="2" stroke-miterlimit="10"/>
<path d="M227.943 1V455" stroke="#FFF5E4" stroke-width="2" stroke-miterlimit="10"/>
<path d="M170.943 1V455" stroke="#FFF5E4" stroke-width="2" stroke-miterlimit="10"/>
<path d="M114.943 1V455" stroke="#FFF5E4" stroke-width="2" stroke-miterlimit="10"/>
<path d="M57.9434 1V455" stroke="#FFF5E4" stroke-width="2" stroke-miterlimit="10"/>
<path d="M1023 1H512V455H1023V1Z" stroke="#FFF5E4" stroke-width="2" stroke-miterlimit="10"/>
<path d="M512.019 455.148H1023.32" stroke="#FFF5E4" stroke-width="2" stroke-miterlimit="10"/>
<path d="M512.019 398.38H1023.32" stroke="#FFF5E4" stroke-width="2" stroke-miterlimit="10"/>
<path d="M512.019 341.611H1023.32" stroke="#FFF5E4" stroke-width="2" stroke-miterlimit="10"/>
<path d="M512.019 284.843H1023.32" stroke="#FFF5E4" stroke-width="2" stroke-miterlimit="10"/>
<path d="M512.019 228.074H1023.32" stroke="#FFF5E4" stroke-width="2" stroke-miterlimit="10"/>
<path d="M512.019 171.306H1023.32" stroke="#FFF5E4" stroke-width="2" stroke-miterlimit="10"/>
<path d="M512.019 114.537H1023.32" stroke="#FFF5E4" stroke-width="2" stroke-miterlimit="10"/>
<path d="M512.019 57.7685H1023.32" stroke="#FFF5E4" stroke-width="2" stroke-miterlimit="10"/>
<path d="M966.943 1V455" stroke="#FFF5E4" stroke-width="2" stroke-miterlimit="10"/>
<path d="M909.943 1V455" stroke="#FFF5E4" stroke-width="2" stroke-miterlimit="10"/>
<path d="M852.943 1V455" stroke="#FFF5E4" stroke-width="2" stroke-miterlimit="10"/>
<path d="M795.943 1V455" stroke="#FFF5E4" stroke-width="2" stroke-miterlimit="10"/>
<path d="M738.943 1V455" stroke="#FFF5E4" stroke-width="2" stroke-miterlimit="10"/>
<path d="M681.943 1V455" stroke="#FFF5E4" stroke-width="2" stroke-miterlimit="10"/>
<path d="M625.943 1V455" stroke="#FFF5E4" stroke-width="2" stroke-miterlimit="10"/>
<path d="M568.943 1V455" stroke="#FFF5E4" stroke-width="2" stroke-miterlimit="10"/>
<path d="M1301 1H1023V455H1301V1Z" stroke="#FFF5E4" stroke-width="2" stroke-miterlimit="10"/>
<path d="M1022.83 455.148H1301" stroke="#FFF5E4" stroke-width="2" stroke-miterlimit="10"/>
<path d="M1022.83 398.38H1301" stroke="#FFF5E4" stroke-width="2" stroke-miterlimit="10"/>
<path d="M1022.83 341.611H1301" stroke="#FFF5E4" stroke-width="2" stroke-miterlimit="10"/>
<path d="M1022.83 284.843H1301" stroke="#FFF5E4" stroke-width="2" stroke-miterlimit="10"/>
<path d="M1022.83 228.074H1301" stroke="#FFF5E4" stroke-width="2" stroke-miterlimit="10"/>
<path d="M1022.83 171.306H1301" stroke="#FFF5E4" stroke-width="2" stroke-miterlimit="10"/>
<path d="M1022.83 114.537H1301" stroke="#FFF5E4" stroke-width="2" stroke-miterlimit="10"/>
<path d="M1022.83 57.7685H1301" stroke="#FFF5E4" stroke-width="2" stroke-miterlimit="10"/>
<path d="M1249.94 1V455" stroke="#FFF5E4" stroke-width="2" stroke-miterlimit="10"/>
<path d="M1192.94 1V455" stroke="#FFF5E4" stroke-width="2" stroke-miterlimit="10"/>
<path d="M1135.94 1V455" stroke="#FFF5E4" stroke-width="2" stroke-miterlimit="10"/>
<path d="M1079.94 1V455" stroke="#FFF5E4" stroke-width="2" stroke-miterlimit="10"/>
<path d="M512 909H1V1363H512V909Z" stroke="#FFF5E4" stroke-width="2" stroke-miterlimit="10"/>
<path d="M1 1363.15H512.298" stroke="#FFF5E4" stroke-width="2" stroke-miterlimit="10"/>
<path d="M1 1306.38H512.298" stroke="#FFF5E4" stroke-width="2" stroke-miterlimit="10"/>
<path d="M1 1249.61H512.298" stroke="#FFF5E4" stroke-width="2" stroke-miterlimit="10"/>
<path d="M1 1192.84H512.298" stroke="#FFF5E4" stroke-width="2" stroke-miterlimit="10"/>
<path d="M1 1136.07H512.298" stroke="#FFF5E4" stroke-width="2" stroke-miterlimit="10"/>
<path d="M1 1079.31H512.298" stroke="#FFF5E4" stroke-width="2" stroke-miterlimit="10"/>
<path d="M1 1022.54H512.298" stroke="#FFF5E4" stroke-width="2" stroke-miterlimit="10"/>
<path d="M1 965.769H512.298" stroke="#FFF5E4" stroke-width="2" stroke-miterlimit="10"/>
<path d="M454.943 909V1363" stroke="#FFF5E4" stroke-width="2" stroke-miterlimit="10"/>
<path d="M398.943 909V1363" stroke="#FFF5E4" stroke-width="2" stroke-miterlimit="10"/>
<path d="M341.943 909V1363" stroke="#FFF5E4" stroke-width="2" stroke-miterlimit="10"/>
<path d="M284.943 909V1363" stroke="#FFF5E4" stroke-width="2" stroke-miterlimit="10"/>
<path d="M227.943 909V1363" stroke="#FFF5E4" stroke-width="2" stroke-miterlimit="10"/>
<path d="M170.943 909V1363" stroke="#FFF5E4" stroke-width="2" stroke-miterlimit="10"/>
<path d="M114.943 909V1363" stroke="#FFF5E4" stroke-width="2" stroke-miterlimit="10"/>
<path d="M57.9434 909V1363" stroke="#FFF5E4" stroke-width="2" stroke-miterlimit="10"/>
<path d="M1023 909H512V1363H1023V909Z" stroke="#FFF5E4" stroke-width="2" stroke-miterlimit="10"/>
<path d="M512.019 1363.15H1023.32" stroke="#FFF5E4" stroke-width="2" stroke-miterlimit="10"/>
<path d="M512.019 1306.38H1023.32" stroke="#FFF5E4" stroke-width="2" stroke-miterlimit="10"/>
<path d="M512.019 1249.61H1023.32" stroke="#FFF5E4" stroke-width="2" stroke-miterlimit="10"/>
<path d="M512.019 1192.84H1023.32" stroke="#FFF5E4" stroke-width="2" stroke-miterlimit="10"/>
<path d="M512.019 1136.07H1023.32" stroke="#FFF5E4" stroke-width="2" stroke-miterlimit="10"/>
<path d="M512.019 1079.31H1023.32" stroke="#FFF5E4" stroke-width="2" stroke-miterlimit="10"/>
<path d="M512.019 1022.54H1023.32" stroke="#FFF5E4" stroke-width="2" stroke-miterlimit="10"/>
<path d="M512.019 965.769H1023.32" stroke="#FFF5E4" stroke-width="2" stroke-miterlimit="10"/>
<path d="M966.943 909V1363" stroke="#FFF5E4" stroke-width="2" stroke-miterlimit="10"/>
<path d="M909.943 909V1363" stroke="#FFF5E4" stroke-width="2" stroke-miterlimit="10"/>
<path d="M852.943 909V1363" stroke="#FFF5E4" stroke-width="2" stroke-miterlimit="10"/>
<path d="M795.943 909V1363" stroke="#FFF5E4" stroke-width="2" stroke-miterlimit="10"/>
<path d="M738.943 909V1363" stroke="#FFF5E4" stroke-width="2" stroke-miterlimit="10"/>
<path d="M681.943 909V1363" stroke="#FFF5E4" stroke-width="2" stroke-miterlimit="10"/>
<path d="M625.943 909V1363" stroke="#FFF5E4" stroke-width="2" stroke-miterlimit="10"/>
<path d="M568.943 909V1363" stroke="#FFF5E4" stroke-width="2" stroke-miterlimit="10"/>
<path d="M1301 909H1023V1363H1301V909Z" stroke="#FFF5E4" stroke-width="2" stroke-miterlimit="10"/>
<path d="M1022.83 1363.15H1301" stroke="#FFF5E4" stroke-width="2" stroke-miterlimit="10"/>
<path d="M1022.83 1306.38H1301" stroke="#FFF5E4" stroke-width="2" stroke-miterlimit="10"/>
<path d="M1022.83 1249.61H1301" stroke="#FFF5E4" stroke-width="2" stroke-miterlimit="10"/>
<path d="M1022.83 1192.84H1301" stroke="#FFF5E4" stroke-width="2" stroke-miterlimit="10"/>
<path d="M1022.83 1136.07H1301" stroke="#FFF5E4" stroke-width="2" stroke-miterlimit="10"/>
<path d="M1022.83 1079.31H1301" stroke="#FFF5E4" stroke-width="2" stroke-miterlimit="10"/>
<path d="M1022.83 1022.54H1301" stroke="#FFF5E4" stroke-width="2" stroke-miterlimit="10"/>
<path d="M1022.83 965.769H1301" stroke="#FFF5E4" stroke-width="2" stroke-miterlimit="10"/>
<path d="M1249.94 909V1363" stroke="#FFF5E4" stroke-width="2" stroke-miterlimit="10"/>
<path d="M1192.94 909V1363" stroke="#FFF5E4" stroke-width="2" stroke-miterlimit="10"/>
<path d="M1135.94 909V1363" stroke="#FFF5E4" stroke-width="2" stroke-miterlimit="10"/>
<path d="M1079.94 909V1363" stroke="#FFF5E4" stroke-width="2" stroke-miterlimit="10"/>
<path d="M512 455H1V909H512V455Z" stroke="#FFF5E4" stroke-width="2" stroke-miterlimit="10"/>
<path d="M1 909.148H512.298" stroke="#FFF5E4" stroke-width="2" stroke-miterlimit="10"/>
<path d="M1 852.38H512.298" stroke="#FFF5E4" stroke-width="2" stroke-miterlimit="10"/>
<path d="M1 795.611H512.298" stroke="#FFF5E4" stroke-width="2" stroke-miterlimit="10"/>
<path d="M1 738.843H512.298" stroke="#FFF5E4" stroke-width="2" stroke-miterlimit="10"/>
<path d="M1 682.074H512.298" stroke="#FFF5E4" stroke-width="2" stroke-miterlimit="10"/>
<path d="M1 625.306H512.298" stroke="#FFF5E4" stroke-width="2" stroke-miterlimit="10"/>
<path d="M1 568.537H512.298" stroke="#FFF5E4" stroke-width="2" stroke-miterlimit="10"/>
<path d="M1 511.768H512.298" stroke="#FFF5E4" stroke-width="2" stroke-miterlimit="10"/>
<path d="M454.943 455V909" stroke="#FFF5E4" stroke-width="2" stroke-miterlimit="10"/>
<path d="M398.943 455V909" stroke="#FFF5E4" stroke-width="2" stroke-miterlimit="10"/>
<path d="M341.943 455V909" stroke="#FFF5E4" stroke-width="2" stroke-miterlimit="10"/>
<path d="M284.943 455V909" stroke="#FFF5E4" stroke-width="2" stroke-miterlimit="10"/>
<path d="M227.943 455V909" stroke="#FFF5E4" stroke-width="2" stroke-miterlimit="10"/>
<path d="M170.943 455V909" stroke="#FFF5E4" stroke-width="2" stroke-miterlimit="10"/>
<path d="M114.943 455V909" stroke="#FFF5E4" stroke-width="2" stroke-miterlimit="10"/>
<path d="M57.9434 455V909" stroke="#FFF5E4" stroke-width="2" stroke-miterlimit="10"/>
<path d="M1023 455H512V909H1023V455Z" stroke="#FFF5E4" stroke-width="2" stroke-miterlimit="10"/>
<path d="M512.019 909.148H1023.32" stroke="#FFF5E4" stroke-width="2" stroke-miterlimit="10"/>
<path d="M512.019 852.38H1023.32" stroke="#FFF5E4" stroke-width="2" stroke-miterlimit="10"/>
<path d="M512.019 795.611H1023.32" stroke="#FFF5E4" stroke-width="2" stroke-miterlimit="10"/>
<path d="M512.019 738.843H1023.32" stroke="#FFF5E4" stroke-width="2" stroke-miterlimit="10"/>
<path d="M512.019 682.074H1023.32" stroke="#FFF5E4" stroke-width="2" stroke-miterlimit="10"/>
<path d="M512.019 625.306H1023.32" stroke="#FFF5E4" stroke-width="2" stroke-miterlimit="10"/>
<path d="M512.019 568.537H1023.32" stroke="#FFF5E4" stroke-width="2" stroke-miterlimit="10"/>
<path d="M512.019 511.768H1023.32" stroke="#FFF5E4" stroke-width="2" stroke-miterlimit="10"/>
<path d="M966.943 455V909" stroke="#FFF5E4" stroke-width="2" stroke-miterlimit="10"/>
<path d="M909.943 455V909" stroke="#FFF5E4" stroke-width="2" stroke-miterlimit="10"/>
<path d="M852.943 455V909" stroke="#FFF5E4" stroke-width="2" stroke-miterlimit="10"/>
<path d="M795.943 455V909" stroke="#FFF5E4" stroke-width="2" stroke-miterlimit="10"/>
<path d="M738.943 455V909" stroke="#FFF5E4" stroke-width="2" stroke-miterlimit="10"/>
<path d="M681.943 455V909" stroke="#FFF5E4" stroke-width="2" stroke-miterlimit="10"/>
<path d="M625.943 455V909" stroke="#FFF5E4" stroke-width="2" stroke-miterlimit="10"/>
<path d="M568.943 455V909" stroke="#FFF5E4" stroke-width="2" stroke-miterlimit="10"/>
<path d="M1301 455H1023V909H1301V455Z" stroke="#FFF5E4" stroke-width="2" stroke-miterlimit="10"/>
<path d="M1022.83 909.148H1301" stroke="#FFF5E4" stroke-width="2" stroke-miterlimit="10"/>
<path d="M1022.83 852.38H1301" stroke="#FFF5E4" stroke-width="2" stroke-miterlimit="10"/>
<path d="M1022.83 795.611H1301" stroke="#FFF5E4" stroke-width="2" stroke-miterlimit="10"/>
<path d="M1022.83 738.843H1301" stroke="#FFF5E4" stroke-width="2" stroke-miterlimit="10"/>
<path d="M1022.83 682.074H1301" stroke="#FFF5E4" stroke-width="2" stroke-miterlimit="10"/>
<path d="M1022.83 625.306H1301" stroke="#FFF5E4" stroke-width="2" stroke-miterlimit="10"/>
<path d="M1022.83 568.537H1301" stroke="#FFF5E4" stroke-width="2" stroke-miterlimit="10"/>
<path d="M1022.83 511.768H1301" stroke="#FFF5E4" stroke-width="2" stroke-miterlimit="10"/>
<path d="M1249.94 455V909" stroke="#FFF5E4" stroke-width="2" stroke-miterlimit="10"/>
<path d="M1192.94 455V909" stroke="#FFF5E4" stroke-width="2" stroke-miterlimit="10"/>
<path d="M1135.94 455V909" stroke="#FFF5E4" stroke-width="2" stroke-miterlimit="10"/>
<path d="M1079.94 455V909" stroke="#FFF5E4" stroke-width="2" stroke-miterlimit="10"/>
<path d="M512 1363H1V1817H512V1363Z" stroke="#FFF5E4" stroke-width="2" stroke-miterlimit="10"/>
<path d="M1 1817.15H512.298" stroke="#FFF5E4" stroke-width="2" stroke-miterlimit="10"/>
<path d="M1 1760.38H512.298" stroke="#FFF5E4" stroke-width="2" stroke-miterlimit="10"/>
<path d="M1 1703.61H512.298" stroke="#FFF5E4" stroke-width="2" stroke-miterlimit="10"/>
<path d="M1 1646.84H512.298" stroke="#FFF5E4" stroke-width="2" stroke-miterlimit="10"/>
<path d="M1 1590.07H512.298" stroke="#FFF5E4" stroke-width="2" stroke-miterlimit="10"/>
<path d="M1 1533.31H512.298" stroke="#FFF5E4" stroke-width="2" stroke-miterlimit="10"/>
<path d="M1 1476.54H512.298" stroke="#FFF5E4" stroke-width="2" stroke-miterlimit="10"/>
<path d="M1 1419.77H512.298" stroke="#FFF5E4" stroke-width="2" stroke-miterlimit="10"/>
<path d="M454.943 1363V1817" stroke="#FFF5E4" stroke-width="2" stroke-miterlimit="10"/>
<path d="M398.943 1363V1817" stroke="#FFF5E4" stroke-width="2" stroke-miterlimit="10"/>
<path d="M341.943 1363V1817" stroke="#FFF5E4" stroke-width="2" stroke-miterlimit="10"/>
<path d="M284.943 1363V1817" stroke="#FFF5E4" stroke-width="2" stroke-miterlimit="10"/>
<path d="M227.943 1363V1817" stroke="#FFF5E4" stroke-width="2" stroke-miterlimit="10"/>
<path d="M170.943 1363V1817" stroke="#FFF5E4" stroke-width="2" stroke-miterlimit="10"/>
<path d="M114.943 1363V1817" stroke="#FFF5E4" stroke-width="2" stroke-miterlimit="10"/>
<path d="M57.9434 1363V1817" stroke="#FFF5E4" stroke-width="2" stroke-miterlimit="10"/>
<path d="M1023 1363H512V1817H1023V1363Z" stroke="#FFF5E4" stroke-width="2" stroke-miterlimit="10"/>
<path d="M512.019 1817.15H1023.32" stroke="#FFF5E4" stroke-width="2" stroke-miterlimit="10"/>
<path d="M512.019 1760.38H1023.32" stroke="#FFF5E4" stroke-width="2" stroke-miterlimit="10"/>
<path d="M512.019 1703.61H1023.32" stroke="#FFF5E4" stroke-width="2" stroke-miterlimit="10"/>
<path d="M512.019 1646.84H1023.32" stroke="#FFF5E4" stroke-width="2" stroke-miterlimit="10"/>
<path d="M512.019 1590.07H1023.32" stroke="#FFF5E4" stroke-width="2" stroke-miterlimit="10"/>
<path d="M512.019 1533.31H1023.32" stroke="#FFF5E4" stroke-width="2" stroke-miterlimit="10"/>
<path d="M512.019 1476.54H1023.32" stroke="#FFF5E4" stroke-width="2" stroke-miterlimit="10"/>
<path d="M512.019 1419.77H1023.32" stroke="#FFF5E4" stroke-width="2" stroke-miterlimit="10"/>
<path d="M966.943 1363V1817" stroke="#FFF5E4" stroke-width="2" stroke-miterlimit="10"/>
<path d="M909.943 1363V1817" stroke="#FFF5E4" stroke-width="2" stroke-miterlimit="10"/>
<path d="M852.943 1363V1817" stroke="#FFF5E4" stroke-width="2" stroke-miterlimit="10"/>
<path d="M795.943 1363V1817" stroke="#FFF5E4" stroke-width="2" stroke-miterlimit="10"/>
<path d="M738.943 1363V1817" stroke="#FFF5E4" stroke-width="2" stroke-miterlimit="10"/>
<path d="M681.943 1363V1817" stroke="#FFF5E4" stroke-width="2" stroke-miterlimit="10"/>
<path d="M625.943 1363V1817" stroke="#FFF5E4" stroke-width="2" stroke-miterlimit="10"/>
<path d="M568.943 1363V1817" stroke="#FFF5E4" stroke-width="2" stroke-miterlimit="10"/>
<path d="M1301 1363H1023V1817H1301V1363Z" stroke="#FFF5E4" stroke-width="2" stroke-miterlimit="10"/>
<path d="M1022.83 1817.15H1301" stroke="#FFF5E4" stroke-width="2" stroke-miterlimit="10"/>
<path d="M1022.83 1760.38H1301" stroke="#FFF5E4" stroke-width="2" stroke-miterlimit="10"/>
<path d="M1022.83 1703.61H1301" stroke="#FFF5E4" stroke-width="2" stroke-miterlimit="10"/>
<path d="M1022.83 1646.84H1301" stroke="#FFF5E4" stroke-width="2" stroke-miterlimit="10"/>
<path d="M1022.83 1590.07H1301" stroke="#FFF5E4" stroke-width="2" stroke-miterlimit="10"/>
<path d="M1022.83 1533.31H1301" stroke="#FFF5E4" stroke-width="2" stroke-miterlimit="10"/>
<path d="M1022.83 1476.54H1301" stroke="#FFF5E4" stroke-width="2" stroke-miterlimit="10"/>
<path d="M1022.83 1419.77H1301" stroke="#FFF5E4" stroke-width="2" stroke-miterlimit="10"/>
<path d="M1249.94 1363V1817" stroke="#FFF5E4" stroke-width="2" stroke-miterlimit="10"/>
<path d="M1192.94 1363V1817" stroke="#FFF5E4" stroke-width="2" stroke-miterlimit="10"/>
<path d="M1135.94 1363V1817" stroke="#FFF5E4" stroke-width="2" stroke-miterlimit="10"/>
<path d="M1079.94 1363V1817" stroke="#FFF5E4" stroke-width="2" stroke-miterlimit="10"/>
</g>
</svg>
